{
    "asset" : {
        "generator" : "Khronos glTF Blender I/O v3.4.50",
        "version" : "2.0"
    },
    "scene" : 0,
    "scenes" : [
        {
            "name" : "Scene",
            "nodes" : [
                0
            ]
        }
    ],
    "nodes" : [
        {
            "mesh" : 0,
            "name" : "center",
            "rotation" : [
                0,
                -1,
                0,
                4.371138828673793e-08
            ]
        }
    ],
    "meshes" : [
        {
            "name" : "Cube.006",
            "primitives" : [
                {
                    "attributes" : {
                        "POSITION" : 0,
                        "TEXCOORD_0" : 1,
                        "NORMAL" : 2
                    },
                    "indices" : 3
                }
            ]
        }
    ],
    "accessors" : [
        {
            "bufferView" : 0,
            "componentType" : 5126,
            "count" : 2252,
            "max" : [
                0.5099999904632568,
                -0.020000040531158447,
                0.5099999904632568
            ],
            "min" : [
                -0.5099999904632568,
                -0.05000000074505806,
                -0.5099999904632568
            ],
            "type" : "VEC3"
        },
        {
            "bufferView" : 1,
            "componentType" : 5126,
            "count" : 2252,
            "type" : "VEC2"
        },
        {
            "bufferView" : 2,
            "componentType" : 5126,
            "count" : 2252,
            "type" : "VEC3"
        },
        {
            "bufferView" : 3,
            "componentType" : 5123,
            "count" : 3924,
            "type" : "SCALAR"
        }
    ],
    "bufferViews" : [
        {
            "buffer" : 0,
            "byteLength" : 27024,
            "byteOffset" : 0,
            "target" : 34962
        },
        {
            "buffer" : 0,
            "byteLength" : 18016,
            "byteOffset" : 27024,
            "target" : 34962
        },
        {
            "buffer" : 0,
            "byteLength" : 27024,
            "byteOffset" : 45040,
            "target" : 34962
        },
        {
            "buffer" : 0,
            "byteLength" : 7848,
            "byteOffset" : 72064,
            "target" : 34963
        }
    ],
    "buffers" : [
        {
            "byteLength" : 79912,
            "uri" : "data:application/octet-stream;base64,"
        }
    ]
}
