<?xml version="1.0" encoding="UTF-8" ?>
<svg width="96px" height="96px" baseProfile="tiny-ps" viewBox="0 0 30 30" version="1.2" xmlns="http://www.w3.org/2000/svg">
  <title >Pantheon</title>
  <rect fill="#444" x="0" y="0" width="30" height="30" />
  <path fill="#fff" d="m 5.5273997,24.395409 c 0.9417953,-1.853084 1.315759,-4.24787 3.1394331,-5.413596 2.3514832,-1.503107 5.2684892,-1.330522 7.9823562,-1.155966 2.029843,0.130316 3.83295,1.172027 5.450052,2.538325 0.804251,0.679519 0.590802,2.8708 1.651859,2.550251 0.880282,-0.265921 0.942728,-1.384572 0.572217,-2.086836 C 23.974685,20.166774 23.433239,19.631228 22.917293,19.098039 21.524374,17.6586 19.637975,16.77375 17.645366,16.48638 15.100198,16.119477 12.4834,15.946315 9.9609048,16.376742 8.6895684,16.593615 7.8533964,17.663696 7.0986839,18.631257 5.8570079,20.223133 4.6827498,22.350313 5.5273997,24.395554 Z M 24.834829,24.109772 C 23.482312,23.726517 22.156402,23.274307 20.966568,22.498085 18.784439,21.074514 18.220589,18.263151 18.312849,15.73603 18.401039,13.319846 18.174983,10.592106 19.701392,8.6015881 20.484375,7.5805548 22.000965,7.6442702 22.978845,6.881561 23.927747,6.1414526 22.58881,4.7935233 21.618774,5.4110096 c -1.852551,1.1792879 -3.598906,2.7777027 -4.24308,4.9617224 -0.66906,2.268365 -0.623675,4.666035 -0.509137,6.997393 0.11238,2.287599 0.962285,4.698926 2.91427,6.072871 1.437833,1.012041 3.412727,1.442421 5.054002,0.666776 z M 8.3129551,22.009712 C 8.6384566,20.410913 7.2475952,19.280961 7.1842357,17.653117 7.1190296,15.977764 6.7445754,14.259757 7.4484742,12.608061 9.0697738,8.80365 13.736751,6.2873488 17.681951,7.6552822 18.41172,7.9082203 19.232649,8.8740495 19.926647,8.3482172 20.657123,7.7947347 20.065378,6.7254222 19.289132,6.5346607 18.280601,6.2870122 17.239122,6.153811 16.203508,6.0855273 12.67129,5.8542283 8.9297298,7.3971026 6.9587409,10.404229 c -0.8156533,1.244447 -1.1292292,2.725673 -1.4815201,4.146695 -0.4528361,1.826684 0.096944,3.763392 1.0052751,5.342716 0.4651465,0.808777 1.0402681,1.598078 1.8304592,2.115832 z M 21.331338,7.5532414 c 0.83497,0.9567888 0.96618,2.2161899 1.391736,3.3892276 1.437805,3.963193 -0.94243,8.509924 -4.731082,10.321076 -1.790604,0.855999 -4.015383,1.620102 -5.883576,0.644991 -0.934755,-0.487891 -2.1445922,-1.878522 -2.9637898,-1.141731 -0.8673806,0.780116 0.032699,2.032352 1.1367118,2.196714 2.286839,0.340458 4.652849,0.777953 6.953417,0.07694 4.024226,-1.225885 7.274288,-5.060974 7.34074,-9.341157 0.03703,-2.396036 -1.007843,-5.0200052 -3.244157,-6.146253 z M 24.367345,5.1035888 C 23.243891,6.5330739 23.36496,8.6093782 21.894678,9.8625283 19.62879,11.793754 16.458567,11.853286 13.590547,11.621122 11.379426,11.442238 8.6700739,11.013638 7.5475288,9.0116267 7.1060412,8.2242967 7.434428,6.5936636 6.175306,6.5798145 5.0752463,6.9996148 5.5798147,8.3859174 6.1236123,9.1153986 7.0268418,10.327001 7.883196,11.710371 9.3320841,12.32228 c 1.1261899,0.475581 2.3636489,0.617342 3.5694139,0.739531 2.353728,0.238512 4.779265,0.291408 7.08456,-0.307757 1.918887,-0.498424 3.549669,-1.906269 4.295375,-3.7499289 0.475052,-1.1745272 0.704356,-2.5812669 0.198119,-3.7740672 0,0 -0.112236,-0.1264691 -0.112236,-0.1264691 z m -19.2637514,0.52564 c 1.3588644,1.4473735 3.9204253,0.9670796 4.9989654,2.7320681 0.639684,1.0468079 1.229193,2.1017431 1.622074,3.2875711 0.634226,1.914251 -0.04881,3.851872 -0.164361,5.798821 -0.12219,2.058705 -1.040908,4.172469 -2.7958753,5.344303 -0.79487,-0.322183 -2.3251551,0.951788 -1.4115869,1.50931 0.7937736,0.484429 1.6661744,-0.170228 2.328271,-0.608879 C 12.37604,21.907334 13.133585,18.47608 13.154984,15.318777 13.173257,12.612533 13.028467,9.5698213 11.247883,7.4716857 10.155167,6.1841058 8.465372,5.4538552 6.8198317,5.3639323 6.2381125,5.3302714 5.6448813,5.4072107 5.1035888,5.6293731 Z"/>
</svg>
