<svg version="1.1" viewBox="0 0 1365.3333 1365.3333" width="20" height="20" xmlns="http://www.w3.org/2000/svg">
  <path fill="currentColor" d="m 30.7831,1354.6084 c -0.464041,-0.4642 0.278483,-8.6712 1.65017,-18.2381 1.371686,-9.5667 4.482592,-37.719 6.913173,-62.5603 l 4.41905,-45.1662 58.413457,-58.2523 c 53.99278,-53.8438 59.08842,-58.3903 67.33107,-60.0748 6.65766,-1.3607 11.78686,-1.0239 20.24058,1.3291 l 11.32312,3.1516 21.00816,-19.7069 c 11.55447,-10.8389 56.17515,-54.8656 99.15714,-97.83719 l 78.14927,-78.1302 -5.11727,-11.57086 c -6.89662,-15.5944 -12.40037,-36.97629 -14.01712,-54.45635 -0.73358,-7.93039 -1.72013,-14.41891 -2.19252,-14.41891 -0.47225,0 -5.07999,2.13596 -10.23932,4.74661 -25.27015,12.78655 -65.05561,23.09681 -89.1265,23.09681 -12.49344,0 -12.72181,0.098 -15.45265,6.63388 -2.79096,6.6795 -12.85054,17.59577 -24.41008,26.4886 l -6.24598,4.80506 4.1082,10.37127 c 2.94802,7.44254 4.15011,15.14499 4.25706,27.27619 0.12828,14.5249 -0.60753,18.44496 -5.22482,27.84343 -7.1654,14.58476 -19.65735,27.20385 -33.23147,33.56946 -9.55064,4.4788 -13.77444,5.2122 -30.00884,5.211 -15.50665,0 -20.67643,-0.8217 -28.83793,-4.5768 -16.70382,-7.68529 -31.25986,-24.42892 -34.40746,-39.57815 -1.24803,-6.00657 -2.64284,-7.62431 -7.70537,-8.93614 -9.060799,-2.34787 -24.080286,-13.36342 -30.654566,-22.48247 -3.154311,-4.37539 -7.233721,-14.05683 -9.065122,-21.51431 -2.841669,-11.57055 -2.977406,-15.47284 -0.925545,-26.60877 1.322463,-7.17735 4.518242,-17.22111 7.101863,-22.31948 5.767019,-11.38058 20.252957,-25.04446 32.11336,-30.29088 15.17476,-6.71257 42.31792,-6.99645 58.94388,-0.6165 2.34929,0.9015 3.90012,0.14439 4.83342,-2.35934 2.44744,-6.56702 9.43683,-14.97954 16.41235,-19.75419 l 6.81443,-4.66445 0.28833,-49.29854 c 0.25149,-42.9793 0.84664,-51.7204 4.64354,-68.19229 10.15459,-44.05478 24.83802,-76.81379 48.64415,-108.5268 22.9835,-30.61703 40.80602,-45.89876 72.35302,-62.03815 60.32839,-30.86393 124.84896,-31.97649 187.42029,-3.23182 8.10377,3.7228 15.11912,6.38364 15.58988,5.91299 0.4706,-0.47067 4.25646,-10.99383 8.41299,-23.38483 9.44846,-28.16712 20.24117,-51.58627 33.52546,-72.74667 5.6653,-9.02426 9.1758,-16.40287 7.80098,-16.39695 -1.37481,0.006 -15.02918,1.93446 -30.34311,4.28561 -20.5653,3.15743 -37.72093,4.32433 -65.63092,4.46408 -36.854,0.18456 -37.95287,0.0712 -44.48285,-4.58609 -7.504,-5.35204 -14.07754,-17.97361 -14.14347,-27.1568 -0.0611,-8.47003 6.72329,-27.6482 16.65519,-47.08223 30.57506,-59.82698 85.23757,-116.12112 144.89831,-149.22333 33.61288,-18.64978 73.61657,-33.29165 90.95775,-33.29165 7.14736,0 19.14887,4.65977 24.52643,9.52274 2.07065,1.87251 5.48928,6.78327 7.59692,10.91276 4.14743,8.12642 4.54793,1.91975 -7.52607,116.63054 -1.26459,12.01443 -1.1202,12.6793 2.45519,11.307 15.54379,-5.96605 46.87793,-13.64026 65.84631,-16.12679 42.69784,-5.59718 77.91271,-3.23345 118.79973,7.97416 13.20047,3.61841 24.19708,6.39194 24.43708,6.16341 0.24,-0.22853 1.82469,-9.6596 3.52169,-20.95792 l 3.0854,-20.54242 -7.07934,-8.19057 c -18.26404,-21.13083 -26.81306,-39.17801 -26.81306,-56.60256 0,-21.8276 10.97125,-41.25096 28.55437,-50.55219 10.95485,-5.79506 32.70076,-5.96936 43.42634,-0.34808 4.03929,2.11699 28.24546,24.43332 53.7914,49.59183 25.54618,25.15853 50.15088,49.22385 54.67748,53.47846 l 8.2298,7.73568 30.9001,-29.61267 30.9001,-29.61264 -17.757,-17.89935 -17.7571,-17.89934 62.0639,-37.07482 c 34.1351,-20.39113 83.9904,-49.873268 110.7898,-65.515891 26.7992,-15.642594 52.7047,-30.954005 57.5677,-34.025353 12.6465,-7.987164 21.9849,-6.801168 21.9849,2.792133 0,3.924953 -22.2462,49.170718 -49.6634,101.008471 -9.5459,18.0485 -31.5087,60.39489 -48.8063,94.10306 l -31.4503,61.28762 -16.1259,-16.04204 c -8.8691,-8.82313 -16.911,-16.04205 -17.8708,-16.04205 -0.9599,0 -15.3092,13.38262 -31.8872,29.73914 l -30.1422,29.73917 49.4675,49.31626 c 27.2071,27.12397 51.1213,52.49029 53.1425,56.36964 8.5066,16.32655 6.7942,33.85545 -4.8716,49.86602 -12.1972,16.74012 -35.9198,23.66926 -57.2021,16.7082 -5.7631,-1.88504 -15.8505,-7.48052 -22.4164,-12.4344 -22.7832,-17.18964 -36.5563,-19.9548 -60.6853,-12.18352 l -13.2309,4.2613 5.5412,16.12405 c 3.0476,8.86823 7.4777,26.86368 9.8446,39.98986 3.6455,20.21646 4.1413,28.5795 3.2428,54.69243 -0.5834,16.95465 -1.68,32.39283 -2.4369,34.30707 -1.2904,3.26325 2.0188,3.48113 53.0318,3.49152 29.9244,0.006 57.5801,0.8923 61.4571,1.96936 7.9966,2.22154 18.5276,12.19657 21.6668,20.5232 3.1476,8.34898 2.5751,21.32996 -1.9119,43.34818 -18.8941,92.71534 -82.5006,174.6984 -165.7062,213.58056 -50.52245,23.60924 -76.37387,24.91572 -88.82793,4.48923 -4.83954,-7.93737 -4.99213,-17.13071 -0.99923,-60.17986 4.49303,-48.43984 6.686,-45.01372 -18.37159,-28.70274 -27.36646,17.8139 -56.5931,32.09609 -90.64183,44.29382 -3.43398,1.23019 -3.40266,1.60512 0.60485,7.23315 7.64079,10.73036 21.89224,43.09318 25.93123,58.88529 15.89939,62.16612 -2.56304,133.60684 -46.90538,181.50054 -39.44433,42.6036 -92.58315,66.5613 -163.66562,73.7889 -23.92874,2.433 -57.73373,2.5297 -81.79985,0.2339 l -16.87699,-1.61 -12.74567,11.6793 c -7.01028,6.4235 -13.37245,11.6792 -14.1384,11.6792 -0.76579,0 0.41109,5.146 2.6154,11.4356 6.02894,17.2024 5.62501,38.1523 -1.01221,52.5007 -25.23584,54.5556 -110.22042,51.3046 -125.2235,-4.7902 -2.17835,-8.1448 -3.35568,-9.356 -14.01728,-14.4193 -20.64122,-9.803 -33.48937,-30.0404 -33.66001,-53.0193 -0.0507,-6.9245 0.55667,-15.2751 1.3514,-18.5566 4.499,-18.5772 20.69313,-38.5193 38.13768,-46.9641 12.73136,-6.1631 39.82365,-7.641 53.58168,-2.9228 9.49784,3.2573 9.6203,3.245 12.50926,-1.2553 3.60567,-5.6165 17.4705,-19.7109 23.23245,-23.6168 3.49589,-2.3698 4.66875,-6.1445 6.44809,-20.7501 3.44503,-28.2776 12.62903,-55.8637 27.53143,-82.69546 0.36648,-0.65998 -6.48509,-1.79636 -15.22578,-2.52533 -14.42642,-1.2031 -46.19313,-8.93228 -53.48637,-13.01384 -2.21042,-1.23698 -26.86497,22.11834 -99.05959,93.83923 -52.86436,52.5174 -97.81916,96.6786 -99.89996,98.1359 -3.68845,2.5835 -3.66474,2.8834 0.94718,11.9931 5.13263,10.1383 6.22971,24.314 2.6233,33.8971 -1.15884,3.0795 -27.25653,30.8224 -57.99477,61.6511 l -55.88801,56.0524 -15.09422,4.0015 c -8.30172,2.2009 -30.30851,7.2727 -48.90399,11.2706 -18.595329,3.998 -37.983151,8.45 -43.083718,9.8935 -5.100716,1.4432 -9.653712,2.2445 -10.117752,1.7805 z m 129.43761,-114.5544 47.58436,-48.0955 -12.80236,-12.9288 -12.80221,-12.9289 -44.3322,44.2993 -44.332193,44.2993 -1.837815,16.7251 -1.837815,16.725 h 11.387863 11.38786 z m 320.2443,-0.4814 c 5.88247,-3.042 10.23708,-10.5565 10.225,-17.6449 -0.0149,-6.524 -6.95584,-16.6935 -13.82635,-20.2463 -3.32988,-1.722 -6.05431,-3.8968 -6.05431,-4.8329 0,-0.936 7.15974,-9.8053 15.91043,-19.7094 8.75084,-9.9041 15.91058,-18.8211 15.91058,-19.8157 0,-0.9945 -1.57395,-3.2327 -3.49783,-4.9737 -3.25768,-2.9482 -4.78942,-1.928 -22.31198,14.86 -16.5384,15.8451 -19.0622,17.5995 -20.86511,14.5038 -6.40513,-10.9979 -10.55629,-13.8875 -19.95031,-13.8875 -7.71745,0 -10.10836,0.9466 -14.09395,5.5801 -10.70619,12.4468 -2.79468,29.2149 15.19103,32.1969 14.43149,2.3927 15.8078,3.752 15.8078,15.6109 0,10.7968 2.04828,15.1214 8.94967,18.8962 5.49674,3.0065 12.12203,2.815 18.60533,-0.5375 z m 165.77923,-126.6401 c 43.9232,-4.7005 87.77584,-20.2343 114.68586,-40.6248 24.80879,-18.7985 45.37618,-50.2255 52.76115,-80.61895 4.00453,-16.48051 4.07971,-45.18677 0.15901,-60.61117 -6.53759,-25.71836 -28.49546,-58.59073 -39.13721,-58.59073 -8.53948,0 -59.72758,18.94537 -78.87376,29.19213 -46.52024,24.89712 -88.27165,63.32439 -112.34582,103.40142 -18.77596,31.2569 -31.07355,77.2569 -25.31698,94.6996 2.78619,8.4422 5.95661,11.3584 14.57186,13.4037 9.85359,2.3392 50.59085,2.2 73.49589,-0.2512 z M 185.90835,949.06834 c 3.13,-3.63886 4.46469,-7.71684 4.43367,-13.54747 -0.0507,-9.54395 -3.91578,-15.35342 -13.38021,-20.11083 -3.55764,-1.78824 -6.45554,-4.79086 -6.44555,-6.67836 0.0149,-1.88616 7.26072,-11.27858 16.11269,-20.87207 15.91953,-17.25292 16.05944,-17.49635 12.86336,-22.37417 -1.77725,-2.71232 -3.90041,-4.93148 -4.71841,-4.93148 -0.818,0 -9.5047,8.0547 -19.3037,17.89934 -9.79899,9.84464 -18.73002,17.89368 -19.84664,17.88678 -1.11677,-0.006 -3.55958,-2.69992 -5.42857,-5.98443 -9.60554,-16.87995 -35.45935,-9.75016 -35.33942,9.74564 0.0731,11.76052 9.31645,20.11714 22.2538,20.11714 10.74707,0 15.4895,4.6482 15.4895,15.1819 0,7.36864 1.0932,10.08318 6.06236,15.05233 5.37413,5.37407 7.01102,5.93521 14.41583,4.94202 5.62233,-0.75409 9.81734,-2.82247 12.83129,-6.32634 z M 567.94103,915.8677 c 17.57746,-16.28167 42.64981,-35.49076 62.05136,-47.54015 36.1158,-22.43007 60.04662,-31.93873 166.98266,-66.3492 62.12489,-19.99086 112.715,-47.756 148.64778,-81.58154 45.69851,-43.01862 70.12607,-93.41236 73.29387,-151.20435 6.8417,-124.81418 -94.64719,-226.92302 -224.92487,-226.29907 -48.09583,0.23037 -91.27397,14.51109 -127.28416,42.09807 -59.80738,45.81758 -95.73315,124.78262 -102.80518,225.96613 l -2.36301,33.80986 -7.34365,7.45806 c -6.55847,6.66066 -8.41553,7.45806 -17.36908,7.45806 -7.7704,0 -11.3437,-1.10933 -15.88656,-4.93176 -8.86062,-7.45577 -10.71872,-14.07185 -9.99946,-35.60397 0.35157,-10.5257 0.0358,-19.13567 -0.70285,-19.13319 -1.74429,0.006 -19.98656,31.90944 -25.58935,44.7528 -13.95299,31.98493 -32.21285,93.76489 -38.50223,130.26743 -5.39815,31.33009 -7.67882,66.23716 -5.32073,81.43612 4.78211,30.8214 17.69797,50.47811 40.55469,61.72092 16.38058,8.05727 25.99029,9.7756 52.27428,9.3472 l 22.07467,-0.35983 z m -47.37165,-58.72746 c -10.67547,-5.47116 -16.51438,-15.52826 -15.32258,-26.3923 0.96044,-8.7568 2.55453,-10.48904 85.34451,-92.74498 46.40106,-46.10184 87.31687,-85.34764 90.92389,-87.21292 12.91005,-6.67604 29.21262,0.65172 34.96591,15.71664 6.02671,15.78082 6.5537,15.1223 -82.22659,102.75465 -44.50016,43.92484 -83.59426,81.91206 -86.8758,84.41609 -8.55112,6.525 -18.36175,7.79219 -26.80934,3.46282 z M 637.71685,554.42932 c -5.74271,-5.74274 -5.81341,-6.0882 -5.81341,-28.3953 0,-25.90002 1.6624,-29.973 13.70746,-33.58176 6.36158,-1.90601 8.79007,-1.71013 14.93179,1.2043 10.68411,5.06999 13.12588,11.37054 13.12588,33.8709 0,19.17373 0,19.19759 -6.76207,25.95334 -9.17267,9.17274 -20.59439,9.54387 -29.18965,0.94852 z m 87.22006,-66.0877 c -12.20213,-7.23915 -16.68651,-21.53809 -10.50423,-33.49342 4.06793,-7.86638 49.29449,-37.80014 57.11188,-37.80014 13.5959,0 23.44173,10.70512 23.44173,25.48762 0,10.05988 -5.45691,16.95787 -18.59279,23.50276 -5.63472,2.80753 -14.7777,9.51947 -20.3177,14.91542 -12.35218,12.031 -20.18136,13.88852 -31.13889,7.38776 z m 312.42729,335.83222 c 17.9308,-10.70973 48.0263,-37.27289 62.3774,-55.05618 21.9292,-27.1738 38.6125,-58.82261 47.9892,-91.03755 l 3.0392,-10.44128 h -41.3187 -41.3189 l -13.5575,34.30707 c -7.4566,18.86889 -18.2314,44.5992 -23.9438,57.17847 -5.7125,12.57925 -11.3763,27.34621 -12.586,32.81546 -1.9896,8.99503 -6.2779,38.31892 -6.2779,42.93012 0,2.42686 12.0703,-2.61685 25.597,-10.69611 z M 309.49287,801.76722 c 22.20414,-7.42539 44.31102,-18.33446 67.32942,-33.22509 l 13.81069,-8.93403 2.4707,-15.65519 c 9.67012,-61.27376 33.2094,-124.39479 60.5936,-162.48316 6.15529,-8.56137 10.69591,-16.36805 10.09016,-17.34818 -2.9601,-4.78949 -28.61538,-10.40584 -51.75699,-11.33046 -20.29472,-0.81088 -26.34202,-0.30845 -39.3972,3.27315 -27.31126,7.49274 -50.69407,21.85897 -71.98161,44.22496 -36.5694,38.42188 -54.54974,88.73667 -54.57047,152.70578 -0.0149,26.31322 2.63165,46.71268 6.77087,52.31623 6.42676,8.70041 23.15653,7.65364 56.64083,-3.54401 z M 1109.0705,379.75643 c -14.6851,-15.04114 -33.4126,-34.3672 -41.6165,-42.94678 -19.2789,-20.16199 -126.94128,-123.37846 -129.73731,-124.37991 -1.1742,-0.42057 0.17094,2.26433 2.98934,5.96645 2.8184,3.70212 8.39539,13.44339 12.3935,21.64725 7.00924,14.38295 7.23149,15.50179 6.21779,31.30023 l -1.05114,16.3841 54.82452,55.71048 54.8245,55.71047 18.1661,0.0453 c 11.4236,0.0286 23.333,1.43823 32.0875,3.79811 7.6571,2.06397 14.7498,3.83347 15.7619,3.9322 1.0119,0.0986 -10.1752,-12.12686 -24.8602,-27.16802 z M 516.55202,356.19656 c 28.57809,-4.51572 58.02743,-12.19943 84.49996,-22.04714 13.11246,-4.87783 24.08864,-9.11645 24.39129,-9.41914 0.30279,-0.30271 1.8939,-13.44005 3.53586,-29.1941 1.64197,-15.75405 3.86671,-35.77997 4.94365,-44.50208 1.0771,-8.72209 1.95819,-18.31367 1.95819,-21.31462 v -5.45629 l -19.22568,8.92328 c -33.4051,15.50436 -66.12614,40.18916 -92.54184,69.81348 -10.70709,12.00776 -39.38243,53.08881 -39.38243,56.42039 0,1.46306 6.0191,0.85327 31.821,-3.22378 z M 1204.8119,174.90972 c 7.9047,-15.04042 16.1812,-29.9318 18.3922,-33.09196 2.2109,-3.16018 3.1336,-5.3976 2.0505,-4.97206 -4.0961,1.60921 -60.2465,36.61869 -60.2963,37.59442 -0.058,1.13587 23.7348,27.81581 24.8057,27.81581 0.3717,0 7.1432,-12.3058 15.0479,-27.34621 z"/>
</svg>
