<svg width="36" height="36" viewBox="0 0 36 36" fill="none" xmlns="http://www.w3.org/2000/svg">
  <path d="m 16.0714,33.4286 c 0.6831,0 1.2857,-0.2478 1.8081,-0.7433 0.5759,-0.5625 0.991,-1.2857 1.2455,-2.1696 0.2545,-0.884 0.4587,-1.7311 0.6127,-2.5413 0.154,-0.8103 0.3918,-1.3828 0.7132,-1.7177 0.6562,-0.7098 1.3727,-1.5669 2.1495,-2.5714 1.3527,-1.7545 2.2701,-2.7924 2.7523,-3.1138 h 5.5044 c 0.7098,0 1.3159,-0.2512 1.8181,-0.7534 C 33.1774,19.3159 33.4286,18.7098 33.4286,18 V 5.14286 c 0,-0.70982 -0.2512,-1.31585 -0.7534,-1.81808 C 32.173,2.82254 31.5669,2.57143 30.8571,2.57143 h -5.7857 c -0.2946,0 -1.2187,-0.26785 -2.7723,-0.80357 C 20.6518,1.19196 19.202,0.75335 17.9498,0.45201 16.6975,0.15067 15.4286,0 14.1428,0 H 11.5513 C 9.66292,0 8.14283,0.53905 6.99105,1.61719 5.83927,2.69532 5.27006,4.16517 5.28346,6.02678 4.47989,7.05803 4.0781,8.24997 4.0781,9.60267 c 0,0.2947 0.02009,0.58263 0.06027,0.86383 -0.50892,0.8974 -0.76339,1.8617 -0.76339,2.8929 0,0.4821 0.06027,0.9442 0.1808,1.3862 -0.65626,0.991 -0.98437,2.0826 -0.98437,3.2745 0,1.3795 0.50892,2.5781 1.52678,3.596 1.01787,1.0179 2.22322,1.5268 3.61607,1.5268 H 11.25 c -0.6429,1.3259 -0.9643,2.6116 -0.9643,3.8571 0,1.567 0.2344,2.8125 0.7031,3.7366 0.4688,0.9241 1.1518,1.6038 2.0491,2.0391 0.8974,0.4353 1.9085,0.6529 3.0335,0.6529 z" fill="currentColor" />
</svg>
