<svg width="36" height="36" viewBox="0 0 36 36" fill="none" xmlns="http://www.w3.org/2000/svg">
  <path d="M 19.9286,0 C 19.2455,0 18.6428,0.247761 18.1205,0.743304 17.5446,1.3058 17.1295,2.02902 16.875,2.91295 16.6205,3.79687 16.4163,4.64398 16.2623,5.45424 16.1082,6.2645 15.8705,6.83705 15.5491,7.17187 14.8928,7.88169 14.1763,8.73884 13.3995,9.7433 c -1.3526,1.7545 -2.2701,2.7924 -2.7522,3.1138 H 5.14284 c -0.70982,0 -1.31585,0.2512 -1.81808,0.7534 -0.50223,0.5022 -0.75335,1.1083 -0.75335,1.8181 v 12.8571 c 0,0.7098 0.25112,1.3159 0.75335,1.8181 0.50223,0.5022 1.10826,0.7533 1.81808,0.7533 h 5.78576 c 0.2946,0 1.2187,0.2679 2.7723,0.8036 1.6473,0.5759 3.0971,1.0145 4.3493,1.3159 1.2522,0.3013 2.5212,0.452 3.8069,0.452 h 2.5915 c 1.8884,0 3.4085,-0.5391 4.5603,-1.6172 1.1518,-1.0781 1.721,-2.548 1.7076,-4.4096 0.8036,-1.0313 1.2054,-2.2232 1.2054,-3.5759 0,-0.2947 -0.0201,-0.5826 -0.0603,-0.8638 0.5089,-0.8974 0.7634,-1.8617 0.7634,-2.8929 0,-0.4821 -0.0603,-0.9442 -0.1808,-1.3862 0.6562,-0.991 0.9844,-2.0826 0.9844,-3.2745 0,-1.3795 -0.509,-2.5781 -1.5268,-3.596 -1.0179,-1.0179 -2.2233,-1.5268 -3.6161,-1.5268 H 24.75 c 0.6428,-1.32588 0.9643,-2.61159 0.9643,-3.85713 0,-1.56696 -0.2344,-2.8125 -0.7032,-3.73661 C 24.5424,1.76786 23.8594,1.08818 22.962,0.652902 22.0647,0.217627 21.0536,0 19.9286,0 Z" fill="currentColor" />
</svg>
