<svg width="36" height="36" viewBox="0 0 36 36" fill="none" xmlns="http://www.w3.org/2000/svg">
  <path d="M16.0714 33.4286C16.7545 33.4286 17.3571 33.1808 17.8795 32.6853C18.4554 32.1228 18.8705 31.3996 19.125 30.5157C19.3795 29.6317 19.5837 28.7846 19.7377 27.9744C19.8917 27.1641 20.1295 26.5916 20.4509 26.2567C21.1071 25.5469 21.8236 24.6898 22.6004 23.6853C23.9531 21.9308 24.8705 20.8929 25.3527 20.5715H30.8571C31.5669 20.5715 32.173 20.3203 32.6752 19.8181C33.1774 19.3159 33.4286 18.7098 33.4286 18V5.14286C33.4286 4.43304 33.1774 3.82701 32.6752 3.32478C32.173 2.82254 31.5669 2.57143 30.8571 2.57143H25.0714C24.7768 2.57143 23.8527 2.30358 22.2991 1.76786C20.6518 1.19196 19.202 0.75335 17.9498 0.45201C16.6975 0.15067 15.4286 0 14.1428 0H11.5513C9.66292 0 8.14283 0.53905 6.99105 1.61719C5.83927 2.69532 5.27006 4.16517 5.28346 6.02678C4.47989 7.05803 4.0781 8.24997 4.0781 9.60267C4.0781 9.89737 4.09819 10.1853 4.13837 10.4665C3.62945 11.3639 3.37498 12.3282 3.37498 13.3594C3.37498 13.8415 3.43525 14.3036 3.55578 14.7456C2.89952 15.7366 2.57141 16.8282 2.57141 18.0201C2.57141 19.3996 3.08033 20.5982 4.09819 21.6161C5.11606 22.634 6.32141 23.1429 7.71426 23.1429H11.25C10.6071 24.4688 10.2857 25.7545 10.2857 27C10.2857 28.567 10.5201 29.8125 10.9888 30.7366C11.4576 31.6607 12.1406 32.3404 13.0379 32.7757C13.9353 33.211 14.9464 33.4286 16.0714 33.4286ZM16.0714 30.8572C14.7857 30.8572 13.9286 30.5424 13.5 29.913C13.0714 29.2835 12.8571 28.3125 12.8571 27C12.8571 26.2099 13.1786 25.1351 13.8214 23.7757C14.4643 22.4163 14.7857 21.3482 14.7857 20.5715H7.71426C7.04463 20.5715 6.44864 20.3137 5.92632 19.798C5.404 19.2824 5.14283 18.6831 5.14283 18C5.14283 17.5313 5.28681 16.9889 5.57475 16.3728C5.86269 15.7567 6.22097 15.442 6.64953 15.4286C6.44864 15.2009 6.28123 14.8828 6.1473 14.4744C6.01336 14.0659 5.94641 13.6942 5.94641 13.3594C5.94641 12.4353 6.30132 11.6384 7.01114 10.9688C6.77007 10.5402 6.64953 10.0782 6.64953 9.58257C6.64953 9.08707 6.76671 8.59487 7.00109 8.10607C7.23548 7.61717 7.55355 7.26563 7.95533 7.05134C7.88838 6.64955 7.85489 6.27455 7.85489 5.92634C7.85489 3.68974 9.1406 2.57143 11.712 2.57143H14.1428C15.8973 2.57143 18.1875 3.06026 21.0134 4.03795C21.0803 4.06472 21.2745 4.13504 21.596 4.24888C21.9174 4.36273 22.1551 4.44642 22.3091 4.5C22.4632 4.55358 22.6975 4.63058 23.0123 4.73103C23.327 4.83147 23.5815 4.90514 23.7757 4.95201C23.9699 4.99888 24.1908 5.04241 24.4386 5.08259C24.6864 5.12277 24.8973 5.14286 25.0714 5.14286H25.7143V18H25.0714C24.8571 18 24.6194 18.0603 24.3582 18.1808C24.0971 18.3014 23.8292 18.4822 23.5547 18.7232C23.2801 18.9643 23.0223 19.202 22.7812 19.4364C22.5402 19.6708 22.2723 19.9654 21.9777 20.3203C21.683 20.6753 21.452 20.9598 21.2846 21.1741C21.1172 21.3884 20.9062 21.663 20.6518 21.9978C20.3973 22.3326 20.2433 22.5335 20.1897 22.6005C19.4531 23.5112 18.9375 24.1206 18.6428 24.4286C18.0937 25.0045 17.6953 25.7378 17.4475 26.6284C17.1998 27.519 16.9955 28.3594 16.8348 29.1496C16.6741 29.9398 16.4196 30.509 16.0714 30.8572ZM31.0057 18.0614H27.7288V5.06698H31.0509L31.0057 18.0614Z" fill="currentColor"/>
</svg>
