<svg viewBox="0 0 32 32" xmlns="http://www.w3.org/2000/svg" width="32" height="32">
  <path fill="currentColor" d="M30,18.382V10a3,3,0,0,0-3-3,2.965,2.965,0,0,0-1,.184V7a2.989,2.989,0,0,0-4.116-2.78A2.993,2.993,0,0,0,16,5V5.184A2.965,2.965,0,0,0,15,5a3,3,0,0,0-3,3v7.853L10.476,14.44a2.683,2.683,0,0,0-3.708,0,2.62,2.62,0,0,0-.43,3.141l3.931,6.491a4,4,0,0,0,1.567,1.463L11.03,28.757A1,1,0,0,0,12,30H29a1,1,0,0,0,.97-1.243l-1-4a0.987,0.987,0,0,0-.462-0.6,4.039,4.039,0,0,0,.215-0.364A12.155,12.155,0,0,0,30,18.382ZM8.075,16.589a0.623,0.623,0,0,1,1.014-.709l5.231,4.853a1,1,0,0,0,1.36-1.466L14,17.709V8a1,1,0,0,1,2,0v7a1,1,0,0,0,2,0V5a1,1,0,0,1,2,0V15a1,1,0,0,0,2,0V7a1,1,0,0,1,2,0v8a1,1,0,0,0,2,0V10a1,1,0,0,1,2,0v8.382a10.138,10.138,0,0,1-1.065,4.513A1.989,1.989,0,0,1,25.146,24H13.69a2.01,2.01,0,0,1-1.71-.964ZM13.281,28l0.5-2H27.219l0.5,2H13.281Z"/>
  <path fill="currentColor"  d="M8.293,10.707A1,1,0,0,0,9.707,9.293L7.414,7,9.707,4.707A1,1,0,0,0,8.293,3.293L6,5.586,3.707,3.293A1,1,0,0,0,2.293,4.707L4.586,7,2.293,9.293a1,1,0,1,0,1.414,1.414L6,8.414Z"/>
</svg>
