<svg width="24" height="24" viewBox="0 0 24 24" fill="none" xmlns="http://www.w3.org/2000/svg">
  <path d="M22.5417 4.33337V10.0834H16.7917" stroke="currentColor" stroke-width="2" stroke-linecap="round" stroke-linejoin="round"/>
  <path d="M1.45831 19.6666V13.9166H7.20831" stroke="currentColor" stroke-width="2" stroke-linecap="round" stroke-linejoin="round"/>
  <path d="M3.86373 9.12505C4.34977 7.75155 5.17582 6.52356 6.2648 5.55566C7.35379 4.58776 8.67022 3.91149 10.0913 3.58997C11.5123 3.26844 12.9916 3.31213 14.3912 3.71696C15.7908 4.12179 17.065 4.87457 18.095 5.90505L22.5416 10.0834M1.45831 13.9167L5.90498 18.0951C6.93495 19.1255 8.20917 19.8783 9.60875 20.2831C11.0083 20.688 12.4877 20.7317 13.9087 20.4101C15.3297 20.0886 16.6462 19.4123 17.7352 18.4444C18.8241 17.4765 19.6502 16.2485 20.1362 14.8751" stroke="currentColor" stroke-width="2" stroke-linecap="round" stroke-linejoin="round"/>
</svg>
