<svg width="36" height="36" viewBox="0 0 36 36" fill="none" xmlns="http://www.w3.org/2000/svg">
  <path d="M19.9286 0C19.2455 0 18.6428 0.247761 18.1205 0.743304C17.5446 1.3058 17.1295 2.02902 16.875 2.91295C16.6205 3.79687 16.4163 4.64398 16.2623 5.45424C16.1082 6.2645 15.8705 6.83705 15.5491 7.17187C14.8928 7.88169 14.1763 8.73884 13.3995 9.7433C12.0469 11.4978 11.1294 12.5357 10.6473 12.8571H5.14284C4.43302 12.8571 3.82699 13.1083 3.32476 13.6105C2.82253 14.1127 2.57141 14.7188 2.57141 15.4286V28.2857C2.57141 28.9955 2.82253 29.6016 3.32476 30.1038C3.82699 30.606 4.43302 30.8571 5.14284 30.8571H10.9286C11.2232 30.8571 12.1473 31.125 13.7009 31.6607C15.3482 32.2366 16.798 32.6752 18.0502 32.9766C19.3024 33.2779 20.5714 33.4286 21.8571 33.4286H24.4486C26.337 33.4286 27.8571 32.8895 29.0089 31.8114C30.1607 30.7333 30.7299 29.2634 30.7165 27.4018C31.5201 26.3705 31.9219 25.1786 31.9219 23.8259C31.9219 23.5312 31.9018 23.2433 31.8616 22.9621C32.3705 22.0647 32.625 21.1004 32.625 20.0692C32.625 19.5871 32.5647 19.125 32.4442 18.683C33.1004 17.692 33.4286 16.6004 33.4286 15.4085C33.4286 14.029 32.9196 12.8304 31.9018 11.8125C30.8839 10.7946 29.6785 10.2857 28.2857 10.2857H24.75C25.3928 8.95982 25.7143 7.67411 25.7143 6.42857C25.7143 4.86161 25.4799 3.61607 25.0111 2.69196C24.5424 1.76786 23.8594 1.08818 22.962 0.652902C22.0647 0.217627 21.0536 0 19.9286 0ZM19.9286 2.57143C21.2143 2.57143 22.0714 2.88617 22.5 3.51562C22.9285 4.14508 23.1428 5.11608 23.1428 6.42857C23.1428 7.21874 22.8214 8.29352 22.1786 9.6529C21.5357 11.0123 21.2143 12.0804 21.2143 12.8571H28.2857C28.9553 12.8571 29.5513 13.1149 30.0736 13.6306C30.596 14.1462 30.8571 14.7455 30.8571 15.4286C30.8571 15.8973 30.7131 16.4397 30.4252 17.0558C30.1373 17.6719 29.779 17.9866 29.3504 18C29.5513 18.2277 29.7187 18.5458 29.8527 18.9542C29.9866 19.3627 30.0536 19.7344 30.0536 20.0692C30.0536 20.9933 29.6986 21.7902 28.9888 22.4598C29.2299 22.8884 29.3504 23.3504 29.3504 23.846C29.3504 24.3415 29.2332 24.8337 28.9989 25.3225C28.7645 25.8114 28.4464 26.1629 28.0446 26.3772C28.1116 26.779 28.1451 27.154 28.1451 27.5022C28.1451 29.7388 26.8594 30.8571 24.2879 30.8571H21.8571C20.1027 30.8571 17.8125 30.3683 14.9866 29.3906C14.9196 29.3638 14.7254 29.2935 14.404 29.1797C14.0826 29.0658 13.8449 28.9821 13.6908 28.9286C13.5368 28.875 13.3024 28.798 12.9877 28.6975C12.673 28.5971 12.4185 28.5234 12.2243 28.4766C12.0301 28.4297 11.8091 28.3862 11.5614 28.346C11.3136 28.3058 11.1027 28.2857 10.9286 28.2857H10.2857V15.4286H10.9286C11.1428 15.4286 11.3806 15.3683 11.6417 15.2478C11.9029 15.1272 12.1707 14.9464 12.4453 14.7054C12.7199 14.4643 12.9777 14.2266 13.2187 13.9922C13.4598 13.7578 13.7277 13.4632 14.0223 13.1083C14.317 12.7533 14.548 12.4688 14.7154 12.2545C14.8828 12.0402 15.0937 11.7656 15.3482 11.4308C15.6027 11.096 15.7567 10.8951 15.8103 10.8281C16.5469 9.91742 17.0625 9.30803 17.3571 9C17.9062 8.4241 18.3047 7.69084 18.5524 6.80022C18.8002 5.9096 19.0044 5.06919 19.1652 4.27902C19.3259 3.48885 19.5803 2.91964 19.9286 2.57143ZM4.99432 15.3672H8.27116V28.3616H4.94912L4.99432 15.3672Z" fill="currentColor"/>
</svg>
