<svg width="512" height="512" viewBox="0 0 512 512" fill="none" xmlns="http://www.w3.org/2000/svg">
    <g stroke="currentColor" stroke-width="30" stroke-linecap="round" stroke-linejoin="round">
        <circle cx="176.89153" cy="256.38351" r="85.77359" />
        <line x1="210.54286" x2="247.73389" y1="287.8663" y2="342.15714" />
        <path d="m 301.94996,170.60991 h 68.27489 a 51.449201,51.449201 0 0 1 51.44919,51.44921 v 0 a 51.449201,51.449201 0 0 1 -51.44919,51.4492 h -68.27489 z" />
        <line x1="301.94992" x2="301.94992" y1="273.48334" y2="342.15714" />
        <line x1="370.22485" x2="411.87778" y1="273.48334" y2="342.15714" id="line16" />
        <path d="m 402.67972,17.084901 h 51.05036 a 41.976965,41.976965 0 0 1 41.95204,41.952048 v 51.050361" />
        <path d="m 495.68212,402.67971 v 51.05037 a 41.976965,41.976965 0 0 1 -41.95204,41.95204 h -51.05036" />
        <path d="M 110.08731,495.68212 H 59.03695 A 41.976965,41.976965 0 0 1 17.084901,453.73008 v -51.05037" />
        <path d="M 17.084901,110.08731 V 59.036949 A 41.976965,41.976965 0 0 1 59.03695,17.084901 h 51.05036" />
    </g>
</svg>