<svg width="31" height="24" viewBox="0 0 31 24" fill="none" xmlns="http://www.w3.org/2000/svg">
<path d="M29.8054 11.7288V11.7288C29.8054 9.32926 28.2087 7.38406 26.2391 7.38406L4.84099 7.38406C2.87135 7.38406 1.27464 9.32926 1.27464 11.7288V11.7288C1.27464 14.1283 2.87135 16.0735 4.84099 16.0735L26.2391 16.0735C28.2087 16.0735 29.8054 14.1283 29.8054 11.7288Z" stroke="currentColor" stroke-width="0.775"/>
<path d="M14.1798 11.6742C14.1798 10.8182 14.8737 10.1242 15.7298 10.1242C16.5858 10.1242 17.2798 10.8182 17.2798 11.6742C17.2798 12.5303 16.5858 13.2242 15.7298 13.2242C14.8737 13.2242 14.1798 12.5303 14.1798 11.6742Z" fill="currentColor"/>
</svg>
