<svg width="16" height="16" viewBox="0 0 16 16" fill="none" xmlns="http://www.w3.org/2000/svg">
  <path d="M10.1886 8.25939L13.4721 4.97639C13.9531 4.49489 13.9531 3.70689 13.4721 3.22539L13.0341 2.78789C12.5526 2.30589 11.7646 2.30589 11.2836 2.78789L8.00005 6.07089L4.71655 2.78739C4.23555 2.30589 3.44755 2.30589 2.96605 2.78739L2.52805 3.22489C2.04706 3.70639 2.04706 4.49439 2.52805 4.97589L5.81105 8.25889L2.52805 11.5424C2.04706 12.0239 2.04706 12.8114 2.52805 13.2929L2.96605 13.7309C3.44755 14.2124 4.23555 14.2124 4.71655 13.7309L8.00005 10.4479L11.2836 13.7309C11.7646 14.2124 12.5526 14.2124 13.0341 13.7309L13.4721 13.2929C13.9531 12.8114 13.9531 12.0239 13.4721 11.5424L10.1886 8.25939Z" fill="currentColor"/>
</svg>
