<svg width="31" height="24" viewBox="0 0 31 24" fill="none" xmlns="http://www.w3.org/2000/svg">
<path d="M29.8054 11.7288V11.7288C29.8054 9.32924 28.2087 7.38404 26.2391 7.38404L4.84099 7.38404C2.87135 7.38404 1.27464 9.32924 1.27464 11.7288V11.7288C1.27464 14.1283 2.87135 16.0735 4.84099 16.0735L26.2391 16.0735C28.2087 16.0735 29.8054 14.1283 29.8054 11.7288Z" stroke="currentColor" stroke-width="0.775"/>
<g fill="currentColor">
    <path d="M16.9996 13.2886C16.9996 12.8368 17.3658 12.4705 17.8176 12.4705C18.2694 12.4705 18.6356 12.8368 18.6356 13.2886C18.6356 13.7403 18.2694 14.1066 17.8176 14.1066C17.3658 14.1066 16.9996 13.7403 16.9996 13.2886Z" />
    <path d="M17.0069 10.1978C17.0069 9.74604 17.3731 9.37979 17.8249 9.37979C18.2767 9.37979 18.6429 9.74604 18.6429 10.1978C18.6429 10.6496 18.2767 11.0159 17.8249 11.0159C17.3731 11.0159 17.0069 10.6496 17.0069 10.1978Z" />
    <path d="M19.8998 13.2681C19.8998 12.8164 20.2661 12.4501 20.7179 12.4501C21.1696 12.4501 21.5359 12.8164 21.5359 13.2681C21.5359 13.7199 21.1696 14.0862 20.7179 14.0862C20.2661 14.0862 19.8998 13.7199 19.8998 13.2681Z" />
    <path d="M19.9072 10.1774C19.9072 9.72562 20.2734 9.35938 20.7252 9.35938C21.177 9.35938 21.5432 9.72562 21.5432 10.1774C21.5432 10.6292 21.177 10.9954 20.7252 10.9954C20.2734 10.9954 19.9072 10.6292 19.9072 10.1774Z" />
    <path d="M14.1094 13.3192C14.1094 12.8674 14.4757 12.5012 14.9275 12.5012C15.3792 12.5012 15.7455 12.8674 15.7455 13.3192C15.7455 13.771 15.3792 14.1372 14.9275 14.1372C14.4757 14.1372 14.1094 13.771 14.1094 13.3192Z" />
    <path d="M14.1167 10.2285C14.1167 9.77668 14.483 9.41044 14.9348 9.41044C15.3866 9.41044 15.7528 9.77668 15.7528 10.2285C15.7528 10.6802 15.3866 11.0465 14.9348 11.0465C14.483 11.0465 14.1167 10.6802 14.1167 10.2285Z" />
    <path d="M11.2193 13.3396C11.2193 12.8878 11.5855 12.5216 12.0373 12.5216C12.4891 12.5216 12.8553 12.8878 12.8553 13.3396C12.8553 13.7914 12.4891 14.1576 12.0373 14.1576C11.5855 14.1576 11.2193 13.7914 11.2193 13.3396Z" />
    <path d="M11.2265 10.2489C11.2265 9.79713 11.5927 9.43088 12.0445 9.43088C12.4963 9.43088 12.8625 9.79713 12.8625 10.2489C12.8625 10.7007 12.4963 11.0669 12.0445 11.0669C11.5927 11.0669 11.2265 10.7007 11.2265 10.2489Z" />
</g>
</svg>
