<svg width="36" height="37" viewBox="0 0 36 37" fill="none" xmlns="http://www.w3.org/2000/svg">
    <path d="M20.1998 35.2166C19.5168 35.2166 18.9141 34.9688 18.3918 34.4733C17.8159 33.9108 17.4007 33.1876 17.1462 32.3036C16.8918 31.4197 16.6875 30.5726 16.5335 29.7624C16.3795 28.9521 16.1418 28.3795 15.8203 28.0447C15.1641 27.3349 14.4476 26.4778 13.6708 25.4733C12.3181 23.7188 11.4007 22.6809 10.9185 22.3595H5.41408C4.70426 22.3595 4.09823 22.1083 3.596 21.6061C3.09377 21.1039 2.84265 20.4978 2.84265 19.788V6.93088C2.84265 6.22106 3.09377 5.61503 3.596 5.1128C4.09823 4.61057 4.70426 4.35945 5.41408 4.35945H11.1998C11.4944 4.35945 12.4185 4.0916 13.9721 3.55588C15.6194 2.97999 17.0692 2.54137 18.3214 2.24003C19.5737 1.93869 20.8427 1.78802 22.1284 1.78802H24.7199C26.6083 1.78802 28.1284 2.32709 29.2802 3.40521C30.4319 4.48334 31.0011 5.9532 30.9877 7.81481C31.7913 8.84606 32.1931 10.038 32.1931 11.3907C32.1931 11.6853 32.173 11.9733 32.1328 12.2545C32.6418 13.1519 32.8962 14.1162 32.8962 15.1474C32.8962 15.6295 32.836 16.0916 32.7154 16.5336C33.3717 17.5246 33.6998 18.6161 33.6998 19.8081C33.6998 21.1876 33.1909 22.3862 32.173 23.4041C31.1552 24.422 29.9498 24.9309 28.5569 24.9309H25.0212C25.6641 26.2568 25.9855 27.5425 25.9855 28.788C25.9855 30.355 25.7511 31.6005 25.2824 32.5246C24.8136 33.4487 24.1306 34.1284 23.2333 34.5637C22.336 34.999 21.3248 35.2166 20.1998 35.2166ZM20.1998 32.6452C21.4855 32.6452 22.3427 32.3304 22.7712 31.701C23.1998 31.0715 23.4141 30.1005 23.4141 28.788C23.4141 27.9978 23.0927 26.9231 22.4498 25.5637C21.8069 24.2043 21.4855 23.1362 21.4855 22.3595H28.5569C29.2266 22.3595 29.8226 22.1016 30.3449 21.586C30.8672 21.0704 31.1284 20.4711 31.1284 19.788C31.1284 19.3193 30.9844 18.7769 30.6965 18.1608C30.4085 17.5447 30.0502 17.23 29.6217 17.2166C29.8226 16.9889 29.99 16.6708 30.1239 16.2624C30.2578 15.8539 30.3248 15.4822 30.3248 15.1474C30.3248 14.2233 29.9699 13.4264 29.2601 12.7568C29.5011 12.3282 29.6217 11.8662 29.6217 11.3706C29.6217 10.8751 29.5045 10.3829 29.2701 9.89405C29.0357 9.40521 28.7177 9.05365 28.3159 8.83936C28.3828 8.43758 28.4163 8.06258 28.4163 7.71436C28.4163 5.47776 27.1306 4.35945 24.5592 4.35945H22.1284C20.3739 4.35945 18.0837 4.84829 15.2578 5.82597C15.1909 5.85276 14.9967 5.92307 14.6752 6.03691C14.3538 6.15075 14.1161 6.23445 13.9621 6.28803C13.8081 6.3416 13.5737 6.41861 13.2589 6.51905C12.9442 6.6195 12.6898 6.69316 12.4956 6.74003C12.3014 6.78691 12.0804 6.83044 11.8326 6.87061C11.5848 6.91079 11.3739 6.93088 11.1998 6.93088H10.5569V19.788H11.1998C11.4141 19.788 11.6518 19.8483 11.913 19.9688C12.1741 20.0894 12.442 20.2702 12.7165 20.5112C12.9911 20.7523 13.2489 20.99 13.49 21.2244C13.731 21.4588 13.9989 21.7534 14.2935 22.1083C14.5882 22.4632 14.8192 22.7478 14.9866 22.9621C15.154 23.1764 15.365 23.451 15.6194 23.7858C15.8739 24.1206 16.0279 24.3215 16.0815 24.3885C16.8181 25.2992 17.3337 25.9086 17.6284 26.2166C18.1775 26.7925 18.5759 27.5257 18.8237 28.4164C19.0714 29.307 19.2757 30.1474 19.4364 30.9376C19.5971 31.7278 19.8516 32.297 20.1998 32.6452ZM5.26557 19.8494H8.5424V6.855H5.22037L5.26557 19.8494Z" fill="currentColor"/>
</svg>
