<svg xmlns="http://www.w3.org/2000/svg" viewBox="0 0 1792 1792">
    <path fill="currentColor" d="M992 0c-34 0-64 12.333-90 37-28.667 28-49.333 64-62 108-12.667 44-22.833 86.167-30.5 126.5-7.667 40.333-19.5 68.833-35.5 85.5-32.667 35.333-68.333 78-107 128-67.333 87.333-113 139-137 155H256c-35.333 0-65.5 12.5-90.5 37.5S128 732.667 128 768v640c0 35.333 12.5 65.5 37.5 90.5s55.167 37.5 90.5 37.5h288c14.667 0 60.667 13.333 138 40 82 28.667 154.167 50.5 216.5 65.5S1024 1664 1088 1664h129c94 0 169.667-26.833 227-80.5s85.667-126.833 85-219.5c40-51.333 60-110.667 60-178 0-14.667-1-29-3-43 25.333-44.667 38-92.667 38-144 0-24-3-47-9-69 32.667-49.333 49-103.667 49-163 0-68.667-25.333-128.333-76-179s-110.667-76-180-76h-176c32-66 48-130 48-192 0-78-11.667-140-35-186s-57.333-79.833-102-101.5S1048 0 992 0zm0 128c64 0 106.667 15.667 128 47s32 79.667 32 145c0 39.333-16 92.833-48 160.5s-48 120.833-48 159.5h352c33.333 0 63 12.833 89 38.5s39 55.5 39 89.5c0 23.333-7.167 50.333-21.5 81s-32.167 46.333-53.5 47c10 11.333 18.333 27.167 25 47.5 6.667 20.333 10 38.833 10 55.5 0 46-17.667 85.667-53 119 12 21.333 18 44.333 18 69s-5.833 49.167-17.5 73.5-27.5 41.833-47.5 52.5c3.333 20 5 38.667 5 56 0 111.333-64 167-192 167h-121c-87.333 0-201.333-24.333-342-73-3.333-1.333-13-4.833-29-10.5s-27.833-9.833-35.5-12.5c-7.667-2.667-19.333-6.5-35-11.5-15.667-5-28.333-8.667-38-11-9.667-2.333-20.667-4.5-33-6.5-12.333-2-22.833-3-31.5-3h-32V768h32c10.667 0 22.5-3 35.5-9s26.333-15 40-27c13.667-12 26.5-23.833 38.5-35.5 12-11.667 25.333-26.333 40-44 14.667-17.667 26.167-31.833 34.5-42.5 8.333-10.667 18.833-24.333 31.5-41 12.667-16.667 20.333-26.667 23-30 36.667-45.333 62.333-75.667 77-91 27.333-28.667 47.167-65.167 59.5-109.5C935.833 294.167 946 252.333 954 213s20.667-67.667 38-85zM248.607 764.947h163.114v646.83H246.357l2.25-646.83z"/>
</svg>