<?xml version="1.0"?>
<svg xmlns="http://www.w3.org/2000/svg" viewBox="0 0 744.09 1052.4" fill="#fff" fill-opacity="0.1">
  <path d="m464.59 541.72c-4.58-2.05-4.99-8.63-0.83-13.32 2.81-3.17 2.79-3.21-0.72-1.37-8.63 4.52-10.18-1.22-1.77-6.56 3.77-2.39 4.27-3.1 1.66-2.35-5.5 1.58-4.87-3.44 0.81-6.41 3.94-2.07 5.15-2.07 9.13-0.01 5.69 2.94 6.34 7.94 0.85 6.53-2.25-0.58-1.59 0.16 1.66 1.85 3.08 1.6 5.4 4.11 5.4 5.83 0 3.49-2.05 3.8-7.17 1.12-3.51-1.84-3.54-1.8-0.72 1.37 6.68 7.54 0.59 17.32-8.3 13.32zm-37.36-21.74c-6.92-5.26-1.06-15.78 7.53-13.51l3.67 0.97-3.73-2.74c-2.06-1.51-3.74-3.32-3.74-4.02 0-2.86 5.43-3.09 9.64-0.4 4.23 2.7 4.35 2.7 2.21 0-3.35-4.23 1.59-5.62 7.11-2 3.17 2.07 4.29 4.23 4.29 8.25 0 6.41-4.38 9.31-5.48 3.63-0.42-2.15-0.8-1.09-0.94 2.58-0.12 3.42-0.54 6.23-0.92 6.23s-1.87 0.45-3.32 1c-2.05 0.79-2.68-0.21-2.87-4.56-0.21-4.67-0.36-4.87-0.92-1.24-0.41 2.62-2.32 5.09-4.81 6.23-4.93 2.24-4.15 2.29-7.72-0.42zm73.98 0.32c-2.01-0.97-3.95-3.72-4.32-6.11-0.57-3.67-0.71-3.47-0.92 1.22-0.2 4.35-0.83 5.35-2.88 4.56-1.44-0.55-2.94-1-3.32-1s-0.78-2.43-0.88-5.4c-0.11-2.97-0.53-4.13-0.94-2.58-1.28 4.84-5.51 1.41-5.51-4.46 0-4.02 1.12-6.18 4.28-8.25 5.52-3.62 10.46-2.23 7.11 2-2.14 2.7-2.02 2.7 2.22 0 4.2-2.69 9.63-2.46 9.63 0.4 0 0.7-1.68 2.51-3.73 4.02l-3.74 2.74 3.67-0.97c8.59-2.27 14.46 8.25 7.54 13.51-3.42 2.59-3.5 2.6-8.21 0.32zm-44.23-10.74c-2.07-2.07-1.13-8.5 1.38-9.46 1.55-0.59 2.49 0.01 2.49 1.6 0 1.79 0.98 2.23 3.32 1.49 4.99-1.58 4.21 3.22-0.91 5.55-4.96 2.26-4.86 2.24-6.28 0.82zm15.91-0.93c-4.77-2.29-5.12-6.93-0.42-5.44 2.34 0.74 3.32 0.3 3.32-1.49 0-1.63 0.94-2.2 2.59-1.56 1.61 0.61 2.39 2.57 2.07 5.21-0.59 4.95-2.43 5.75-7.56 3.28zm-10.38-10.5c0-1.24-1.17-2.9-2.59-3.7-2.36-1.31-2.36-1.65 0-3.6 1.42-1.19 2.59-3.11 2.59-4.28 0-1.31 2.17-2.12 5.66-2.12 4.23 0 5.88 0.82 6.51 3.25 0.73 2.79 1.32 2.96 4.14 1.2 2.72-1.7 4.07-1.54 7.79 0.89l4.5 2.95-4.75 2.94c-5.55 3.43-7.8 2.77-6.34-1.85 1.02-3.18 0.94-3.19-2.42-0.32-1.91 1.63-3.47 3.85-3.47 4.92 0 1.13-2.46 1.96-5.81 1.96-3.77 0-5.81-0.79-5.81-2.24zm-12.22-2.47l-4.75-2.94 4.32-2.83c2.45-1.61 5.57-2.36 7.19-1.74 2.15 0.83 2.35 1.43 0.79 2.4-1.15 0.7-1.63 2.46-1.08 3.89 1.52 3.97-1.19 4.48-6.47 1.22zm-8.24-7.67c-0.6-0.61-0.17-2.27 0.96-3.71 1.71-2.16 1.29-2.12-2.41 0.24-4.21 2.68-9.64 2.46-9.64-0.4 0-0.7 1.68-2.51 3.74-4.02l3.73-2.74-3.67 0.97c-5.54 1.46-10.44-1.91-10.44-7.18 0-9.75 13.94-10.23 15.44-0.53 0.56 3.64 0.71 3.44 0.92-1.23 0.19-4.35 0.82-5.35 2.87-4.57 1.45 0.56 2.94 1.01 3.32 1.01s0.8 2.8 0.92 6.23c0.14 3.67 0.52 4.73 0.94 2.58 1.1-5.68 5.48-2.78 5.48 3.63 0 3.95-1.12 6.18-4.09 8.13-4.44 2.9-6.38 3.28-8.07 1.59zm44.12-1.69c-2.58-1.8-3.73-4.29-3.73-8.04 0-5.87 4.24-9.29 5.51-4.45 0.41 1.55 0.83 0.39 0.94-2.58 0.1-2.97 0.5-5.4 0.88-5.4s1.88-0.45 3.32-1.01c2.05-0.78 2.68 0.22 2.88 4.57 0.21 4.67 0.36 4.87 0.92 1.23 1.49-9.7 15.44-9.22 15.44 0.53 0 5.27-4.91 8.64-10.45 7.18l-3.67-0.97 3.74 2.74c2.05 1.51 3.73 3.32 3.73 4.02 0 2.86-5.43 3.08-9.63 0.4-3.71-2.36-4.12-2.4-2.42-0.24 3.89 4.94-1.27 6.34-7.46 2.02zm-29.19-1.65c-1.52-1.51-1.35-5.9 0.31-8.53 1.1-1.72 2.26-1.75 5.79-0.14 5.24 2.39 6.19 7.24 1.09 5.63-2.36-0.75-3.32-0.3-3.32 1.54 0 2.69-1.93 3.44-3.87 1.5zm18.81-1.36c0-1.98-0.91-2.45-3.32-1.68-5.09 1.61-4.15-3.24 1.09-5.63 5.2-2.37 7.74-0.59 6.94 4.89-0.64 4.41-4.71 6.5-4.71 2.42zm-12.05-10.2c-5.67-2.97-6.28-7.93-0.81-6.52 2.25 0.57 1.59-0.16-1.66-1.85-3.09-1.61-5.4-4.11-5.4-5.83 0-3.49 2.04-3.81 7.17-1.12 3.56 1.87 3.57 1.84 0.58-1.52-3.73-4.21-3.08-10.04 1.46-13.04 2.89-1.91 3.94-1.86 7.06 0.32 4.4 3.09 4.71 8.4 0.75 12.86-2.82 3.18-2.79 3.22 0.72 1.38 5.12-2.69 7.17-2.37 7.17 1.12 0 1.72-2.32 4.22-5.4 5.83-3.25 1.69-3.91 2.42-1.66 1.85 5.49-1.41 4.84 3.58-0.85 6.53-3.98 2.06-5.19 2.05-9.13-0.01z"/>
  <path d="m333.47 445.91c-0.47-1.83-1.52-3.33-2.33-3.33s-1.47-1.12-1.47-2.49 1.21-2.49 2.69-2.49c1.84 0 2.42-1.01 1.84-3.22-0.64-2.42 0.34-3.63 3.96-4.89 2.64-0.92 4.8-2.46 4.8-3.42 0-2.45-3.57-2.09-7.31 0.74-3.47 2.63-6.69 1.73-4.89-1.36 0.63-1.08-0.43-0.58-2.36 1.11-3.28 2.88-8.09 2.48-6.24-0.52 0.47-0.76-0.26-1.8-1.63-2.32-3.19-1.23-3.15-3.48 0.13-6.75 1.43-1.44 2.14-2.61 1.56-2.61-0.57 0-0.56-0.79 0.03-1.74 0.74-1.19 1.82-1.13 3.42 0.2 1.75 1.45 2.92 1.47 4.61 0.06 1.73-1.43 2.77-1.28 4.36 0.63 2.35 2.83 9.13 3.51 7.42 0.74-0.6-0.97-2.96-2.47-5.26-3.34-3.33-1.27-3.78-2.06-2.24-3.91 1.53-1.85 1.22-2.55-1.48-3.41-3.47-1.1-4.76-4.18-1.75-4.18 0.92 0 1.66-1.49 1.66-3.32 0-3.73 5.8-4.73 7.21-1.24 0.67 1.66 0.86 1.66 0.96 0 0.22-3.48 3.46-2.31 3.46 1.24 0 1.86 1.1 3.32 2.52 3.32 1.86 0 2.25 1.09 1.48 4.15-0.57 2.28-0.55 5.44 0.06 7.01 1.73 4.52 4.46-0.96 3.27-6.59-0.72-3.46-0.32-4.57 1.67-4.57 1.51 0 2.62-1.4 2.62-3.32 0-3.55 3.23-4.72 3.45-1.24 0.11 1.66 0.3 1.66 0.97 0 1.41-3.49 7.2-2.49 7.2 1.24 0 1.83 0.75 3.32 1.66 3.32 3.44 0 1.49 3.3-2.54 4.32-3.75 0.94-3.91 1.27-1.45 3.06 2.43 1.78 2.16 2.26-2.44 4.16-5.23 2.17-6.99 5.07-3.07 5.07 1.17 0 3.73-1.13 5.7-2.51 2.28-1.59 3.97-1.9 4.63-0.83 0.7 1.14 2.09 1.12 4.26-0.04 2.36-1.26 3.22-1.19 3.22 0.28 0 1.1 1.15 3.28 2.57 4.84 2.32 2.57 2.31 3.1-0.12 5.53-1.48 1.48-2.11 2.69-1.41 2.69s0.4 0.88-0.67 1.95c-1.5 1.5-2.81 1.21-5.6-1.24-2.01-1.76-3.13-2.32-2.5-1.24 1.87 3.22-2.22 4.38-5.38 1.52-1.61-1.46-3.8-2.65-4.87-2.65-3.46 0-2.07 3.34 2.2 5.28 2.29 1.04 4.15 3.27 4.15 4.95s1.19 3.05 2.63 3.05c1.45 0 2.29 0.94 1.87 2.08s-1.52 1.91-2.46 1.72c-0.93-0.2-1.33 1.02-0.89 2.71 1.03 3.95-2.23 6-5.37 3.4-1.84-1.53-2.42-1.54-2.42-0.05 0 1.08-0.75 1.5-1.66 0.94-0.91-0.57-1.66-2.48-1.66-4.25 0-1.83-1.13-3.23-2.62-3.23-1.99 0-2.39-1.1-1.67-4.56 1.25-5.92-1.47-10.8-3.11-5.62-0.62 1.95-0.65 5.04-0.07 6.86 0.75 2.36 0.3 3.32-1.55 3.32-1.54 0-2.6 1.43-2.6 3.5 0 2.4-0.77 3.21-2.44 2.57-1.34-0.52-2.88-0.22-3.42 0.65-1.65 2.66-4.37 1.77-5.29-1.73z"/>
  <path d="m146.6 488.13c-3.82-2.08-4.56-3.57-4.56-9.22 0-4.98 0.97-7.52 3.73-9.76 5.61-4.55 2.26-5.9-4.59-1.86-7.54 4.45-7.44 4.46-7.44-1.3 0-3.96 1.33-5.61 7.47-9.2 8.22-4.82 10.41-9.17 2.57-5.12-6.42 3.33-6.72 3.26-6.72-1.58 0-3.15 1.6-4.94 6.85-7.62 6.61-3.36 7.13-3.39 14.12-0.72 5.93 2.26 7.26 3.54 7.26 6.98 0 4.3-1.12 4.47-8.72 1.34-1.6-0.66-2.91-0.47-2.91 0.42s3.74 3.17 8.3 5.07c7.37 3.06 8.31 4.01 8.31 8.46v5.01l-7.48-3.2c-5.61-2.4-7.47-2.66-7.47-1.04 0 1.19 1.78 2.98 3.96 3.97 2.87 1.31 4.19 3.55 4.8 8.15 0.72 5.39 0.18 6.92-3.54 10.08-5.1 4.34-7.66 4.54-13.94 1.14zm-59.772-29.89c-3.778-2.05-4.567-3.6-4.567-8.95 0-5.34 0.9-7.12 5.113-10.12 4.276-3.04 5.784-3.33 9.211-1.77 9.575 4.36 9.815 0.84 0.311-4.58-6.484-3.71-6.728-4.1-3.821-6.23 4.227-3.09 7.385-2.84 13.265 1.05 6.74 4.47 11.37 4.27 5.34-0.23-3.66-2.73-4.22-3.93-2.7-5.76 2.68-3.23 4.84-2.91 11.69 1.74 4.85 3.3 6.15 5.39 6.96 11.21 0.76 5.53 0.37 7.63-1.75 9.23-4.04 3.06-5.43 2.56-5.43-1.98 0-2.23-0.84-4.57-1.88-5.21-1.36-0.85-1.57 1.34-0.74 7.95 1.06 8.47 0.85 9.31-2.95 11.8-3.66 2.4-4.19 2.41-5.07 0.11-0.54-1.41-0.98-4.74-0.98-7.41 0-2.92-0.88-4.84-2.2-4.84-1.48 0-1.98 1.56-1.51 4.75 0.56 3.81-0.29 5.47-4.28 8.31-5.822 4.14-7.843 4.28-14.012 0.93zm101.29-6.71c-4.06-2.14-4.58-3.37-4.7-11.07-0.12-8.19-0.23-8.39-1.89-3.69-2.22 6.3-1.99 6.08-5.21 4.85-2.06-0.79-2.73-3.22-2.73-9.81 0-8.05 0.46-9.11 5.79-13.17 4.84-3.69 6.37-4.11 9.29-2.55l3.5 1.87-3.77 4c-5.61 5.98-2.93 6.43 4.26 0.72 7.04-5.6 8.85-5.98 13.23-2.78 2.85 2.09 2.66 2.52-2.99 6.83-6.63 5.05-6.72 9.15-0.11 4.82 3.82-2.51 4.59-2.49 10.7 0.27 5.99 2.7 6.59 3.54 6.59 9.24 0 5.15-0.94 6.95-5.23 10.01l-5.24 3.72-5.95-3.19c-3.28-1.76-6.2-4.7-6.49-6.52-1.25-7.84-2.74-7.72-3.58 0.27l-0.91 8.58-4.56-2.4zm-55.33-11.15c-1.94-5.03 0.01-15.18 3.02-15.75 2.01-0.38 2.91 0.51 2.91 2.89 0 3.92 0.6 4.12 5.09 1.72 2.75-1.47 3.21-1.16 3.21 2.19 0 5.01-12.69 12.98-14.23 8.95zm27.93-2.77c-3.88-1.74-7.06-3.51-7.06-3.94s-0.49-2.07-1.1-3.65c-0.93-2.41-0.41-2.7 3.21-1.79 3.4 0.85 4.53 0.38 5.36-2.25 1.16-3.63 2.2-3.99 5.5-1.89 1.42 0.9 2 4.05 1.66 9.04l-0.51 7.65-7.06-3.17zm-20.34-16.5c0-3.41-1-5.18-3.32-5.92-4.27-1.36-4.23-3.55 0.1-5.87 2.41-1.29 3.28-3.16 2.93-6.29-0.37-3.28 0.14-4.27 1.97-3.75 3.77 1.07 8.79 0.82 12.02-0.6 2.34-1.04 2.9-0.46 2.9 2.99 0 2.96 1.38 5 4.46 6.61l4.46 2.34-3.63 2.27c-2.52 1.57-3.63 3.91-3.63 7.64 0 5.13-0.19 5.29-4.15 3.49-3.12-1.42-5.2-1.41-8.38 0.03-5.72 2.61-5.73 2.6-5.73-2.94zm-19.51-3.01c-2.97-1.48-5.4-3.26-5.4-3.96 0-2.68 11.25-9.78 13.9-8.77 3.38 1.3 3.43 3 0.18 5.7-2.23 1.85-2.13 2.37 0.86 4.46 3.74 2.63 3.02 5.53-1.34 5.36-1.54-0.06-5.23-1.31-8.2-2.79zm46.14-0.35c-2.09-1.32-2.02-1.97 0.46-4.72 2.75-3.04 2.73-3.3-0.55-5.5-3.29-2.21-3.31-2.38-0.38-4.18 2.45-1.52 4.42-1.07 10.07 2.26l7.02 4.15-6.27 4.74c-7.07 5.36-7.04 5.35-10.35 3.25zm-58.73-10.25c-2.91-1.68-2.87-1.96 0.69-5.75 5.52-5.87 3.04-6.36-3.57-0.71-6.339 5.42-9.449 6.06-13.849 2.84-2.751-2.01-2.529-2.5 3.034-6.75 6.605-5.04 6.595-9.28-0.012-4.94-3.825 2.5-4.591 2.48-10.706-0.27-5.99-2.71-6.587-3.54-6.587-9.25 0-5.11 0.947-6.95 5.101-9.91 5.004-3.56 5.225-3.58 11.623-0.69 5.328 2.4 6.526 3.79 6.526 7.57 0 2.55 0.74 5.09 1.66 5.66 1.01 0.62 1.66-1.83 1.66-6.27 0-8.81 0.81-9.82 5.97-7.47 3.48 1.58 3.99 2.94 3.99 10.59 0 4.82 0.75 9.23 1.66 9.79 0.99 0.61 1.66-1.37 1.66-4.88 0-6.46 0.34-6.74 5.09-4.19 2.43 1.29 3.21 3.5 3.21 8.99 0 6.47-0.71 7.84-6.46 12.39-7.33 5.81-6.65 5.6-10.69 3.25zm68.39-7.27c-5.29-3.47-6.13-4.94-6.67-11.68-0.47-5.97 0.02-8.04 2.21-9.21 4.07-2.18 4.32-2.03 5.53 3.48 1.8 8.18 3.86 4.05 2.26-4.52-1.34-7.15-1.12-8.16 2.24-10.7 4.45-3.35 6.29-2.56 6.29 2.72 0 5.16 1.61 9.17 3.69 9.17 0.92 0 1.34-2.26 0.93-5.02-0.62-4.28 0.1-5.54 4.86-8.48 4.91-3.04 6.21-3.2 10.65-1.36 4.97 2.06 8.1 7.13 8.1 13.14 0 1.73-2.53 4.54-5.83 6.49-4.83 2.85-6.55 3.12-9.97 1.55-4.97-2.26-7.93-0.09-3.51 2.59 1.7 1.03 4.59 3.04 6.42 4.46 3.29 2.56 3.29 2.61-0.8 5.29-3.91 2.56-4.44 2.49-10.07-1.34-3.28-2.22-7.3-4.03-8.95-4.01-2.1 0.02-1.32 1.1 2.61 3.61 5.22 3.34 5.39 3.73 2.59 5.78-4.01 2.93-5.46 2.71-12.58-1.96zm-45.13-0.4c-1.64-2.77-2.93-15.07-1.66-15.78 0.75-0.42 4.54 0.65 8.42 2.38 4.87 2.17 7.06 4.16 7.06 6.43 0 2.68-0.77 3.1-4.15 2.25-3.45-0.86-4.15-0.44-4.15 2.46 0 3.32-3.94 4.93-5.52 2.26zm27.58-3.74c-1-3.83-1.26-3.91-5.57-1.6-2.74 1.47-3.21 1.16-3.2-2.08 0.01-2.69 1.98-4.91 6.79-7.66 3.73-2.13 7.01-3.62 7.31-3.32 1.21 1.24 1.4 14.07 0.23 15.95-1.89 3.07-4.58 2.44-5.56-1.29zm-20.4-14.62c-3.63-1.77-6.01-4.23-6.34-6.56-0.59-4.14 0.72-4.52 7.2-2.05 3.2 1.21 4.23 1.15 3.77-0.22-0.34-1.04-3.96-3.12-8.03-4.62-6.46-2.38-7.46-3.41-7.92-8.15l-0.53-5.43 6.13 2.56c3.37 1.41 6.78 2.56 7.58 2.56 2.99 0 1.31-2.85-2.78-4.72-3.78-1.72-4.19-2.76-3.74-9.51 0.41-6.19 1.34-8.09 5-10.3 4.15-2.51 4.93-2.51 10.14-0.03 4.55 2.17 5.84 3.92 6.67 9.03 0.9 5.54 0.46 6.8-3.5 9.96-6.24 4.99-3.5 6.77 3.81 2.46 3.28-1.94 6.31-3.53 6.71-3.53s0.73 2.21 0.73 4.91c0 4.09-1.29 5.67-7.75 9.45-7.26 4.26-7.94 7.86-0.75 4.01 4.68-2.5 5.18-2.28 5.18 2.35 0 3.13-1.58 4.93-6.57 7.47-7.8 3.98-7.61 3.97-15.01 0.36z"/>
  <path d="m565.6 431.96c-4.61-5.56 3.6-13.77 9.16-9.17 1.37 1.14 2.27 4.01 1.99 6.37-0.37 3.22-1.57 4.42-4.79 4.79-2.36 0.28-5.22-0.62-6.36-1.99zm-2.45-18.57c-1.44-3.73-1.47-3.67 3.56-6.3 4.03-2.12 5.09-2.08 9.13 0.3 5.05 2.99 5.21 3.38 2.93 6.97-1.26 1.97-2.23 2.09-4.69 0.56-1.92-1.18-4-1.35-5.45-0.44-3.32 2.1-4.34 1.9-5.48-1.09zm14.18-9.34c-5.29-3.34-5.7-3.37-11.43-0.64-4.79 2.29-6.2 2.42-7.31 0.66-2.33-3.67-1.68-4.58 5.88-8.25l7.31-3.55 7.73 4.53c6.75 3.95 7.46 4.88 5.61 7.31-1.16 1.52-2.16 2.92-2.21 3.09-0.06 0.18-2.57-1.24-5.58-3.15zm2.64-11.33l-7.91-4.96-8.34 4.22c-4.59 2.33-9.07 3.79-9.95 3.24-3.66-2.26-1.02-5.62 8.39-10.63l9.98-5.32 10.05 6.11c6.91 4.19 9.76 6.86 9.11 8.54-0.51 1.34-0.93 2.76-0.93 3.14 0 1.58-2.92 0.36-10.4-4.34zm58.09 3.15c-3.84-2.15-3.65-9.2 0.31-11.32 4.06-2.17 11.19 3.01 9.65 7.02-1.53 3.99-6.59 6.18-9.96 4.3zm-139.65-5.63c-3.33-3.33-3.43-6.41-0.28-9.03 5.32-4.41 13.48 2.07 9.86 7.82-2.5 3.96-6.34 4.45-9.58 1.21zm101.07-2.49c-0.64-1.04-0.66-6.66-0.03-12.5l1.13-10.61 9.07-5.19c4.98-2.85 10.16-4.76 11.49-4.25 4.67 1.79 2.38 5.48-5.79 9.31l-8.23 3.85-0.49 10.11c-0.38 7.85-1.1 10.23-3.24 10.64-1.51 0.29-3.27-0.32-3.91-1.36zm10.81-7.41v-9.1l8.15-4.13c7.01-3.55 8.28-3.77 9.13-1.55 1.6 4.17 1.18 5.34-2.32 6.45-5.49 1.74-8.31 5.74-8.31 11.75 0 4.58-0.65 5.69-3.33 5.69-2.91 0-3.32-1.11-3.32-9.11zm11.05 7.85c-2.01-3.24 1.31-10.66 5.79-12.98 4.36-2.25 4.91-2.22 5.88 0.31 0.65 1.68-0.02 3.59-1.69 4.8-1.52 1.11-2.76 3.62-2.76 5.58 0 2.41-1.04 3.55-3.22 3.55-1.78 0-3.58-0.57-4-1.26zm-105.69-6.01c0-2.31-1.16-4.83-2.56-5.62-1.55-0.87-2.14-2.53-1.48-4.23 1.37-3.57 3.87-3.5 8.74 0.25 5.18 3.98 4.56 12.46-0.97 13.25-3.02 0.43-3.73-0.27-3.73-3.65zm11.62-2.75c0-5.89-0.7-7.11-5.79-10.11-4.96-2.93-5.54-3.89-4.04-6.69 1.72-3.21 1.89-3.19 8.7 0.82 6.69 3.95 6.96 4.42 7.44 13.38 0.45 8.43 0.18 9.3-2.91 9.3-2.87 0-3.4-1.05-3.4-6.7zm10.5-2.96l1.01-9.65-8.21-4.88c-4.52-2.68-8.23-5.83-8.25-7-0.07-4.27 4.64-3.71 13.79 1.64l9.36 5.47 0.03 12.04c0.03 11.92-0.01 12.04-4.35 12.04-4.36 0-4.38-0.07-3.38-9.66zm47.28 3.44c-6.55-5.24-7.82-7.17-7.91-12.05-0.06-3.19-0.55-7.49-1.1-9.54-1.36-5.08 0.85-4.7 8.96 1.53 6.07 4.67 6.99 6.28 7.95 14 0.6 4.8 0.83 9.53 0.5 10.51s-4.11-1.03-8.4-4.45zm-33.84-3.02c0.63-4.51 1.48-9.32 1.88-10.69 0.75-2.59 15.31-12.55 16.55-11.32 0.39 0.39 0.08 4.63-0.67 9.43-1.41 8.88-2.11 9.76-14.02 17.56l-4.9 3.22 1.16-8.2zm35.84-24.73l-7.48-3.94 8.03-3.46c4.41-1.91 9.06-3.46 10.33-3.46 2.87 0 17.34 6.93 17.34 8.3 0 1.29-14.98 6.68-18.26 6.57-1.37-0.04-5.85-1.85-9.96-4.01zm-48.99-1.51l-8.3-3.89 6.55-2.78c10.94-4.65 13.14-4.68 22.47-0.36l8.98 4.16-7.93 3.4c-9.97 4.27-11.59 4.23-21.77-0.53zm72.44-11.27c-9.89-6.29-10.46-7-9.52-11.73 0.56-2.77 1.01-7.93 1.01-11.47 0-5.33 0.57-6.43 3.32-6.43 2.95 0 3.32 1.1 3.32 9.79v9.79l8.34 5.35c7.19 4.61 8.06 5.73 6.29 8.06-1.14 1.49-2.1 2.85-2.15 3.02s-4.83-2.7-10.61-6.38zm-86.5 0.35c-1.55-2.9-0.97-3.73 4.72-6.63 10.05-5.13 11.83-7.66 11.83-16.83 0-7.14 0.44-8.18 3.4-8.18 3.14 0 3.35 0.86 2.9 11.69l-0.49 11.68-10.29 5.8c-10 5.63-10.34 5.7-12.07 2.47zm53.1-0.5c0.06-11.91 2.04-16.21 10.25-22.23 4.48-3.3 8.41-5.71 8.72-5.38 0.3 0.34-0.18 5.11-1.08 10.61-1.55 9.48-2.05 10.26-9.77 15.37-7.96 5.26-8.14 5.3-8.12 1.63zm-16.28-4.16c-5.9-5.46-6.82-7.3-7.45-14.95-0.84-10.35 0.42-10.76 9.45-3.03 5.82 4.98 6.57 6.51 7.26 14.88 0.46 5.6 0.11 9.33-0.88 9.33-0.91 0-4.68-2.81-8.38-6.23zm58.19-3.14c-6.9-4.16-7.06-4.45-7.06-13.22 0-8.45 0.24-8.96 4.15-8.96 3.82 0 4.16 0.61 4.16 7.47 0 4.11 0.56 7.49 1.24 7.51 3.44 0.1 8.8 6.12 7.79 8.75-1.39 3.62-1.81 3.55-10.28-1.55zm-100-2.19c-1.6-2.98-1.11-3.72 4.05-6.19 5.22-2.48 5.87-3.51 5.87-9.18 0-4.27 0.86-6.72 2.6-7.39 4.61-1.76 6.22 1.89 4.65 10.5-1.29 7.07-2.26 8.43-8.41 11.82-6.95 3.83-6.95 3.83-8.76 0.44zm108.26-5.97c-5.05-3.54-5.32-14.02-0.37-14.02 2.34 0 3.32 1.1 3.32 3.75 0 2.06 1.55 4.72 3.45 5.9 2.77 1.73 3.05 2.63 1.45 4.55-2.5 3.02-3.3 3-7.85-0.18zm-114.05-3.65c-0.74-1.94 0.02-3.65 2.32-5.18 1.88-1.25 3.43-3.68 3.43-5.4 0-2.01 1.18-3.11 3.32-3.11 2.68 0 3.32 1.1 3.32 5.76 0 4.71-0.9 6.24-4.9 8.31-6.1 3.15-6.13 3.15-7.49-0.38zm50.28-10.05c-7.96-5.17-9.17-6.6-7.77-9.1 1.54-2.75 2.29-2.6 10.66 2.19l9 5.15 8.43-4.59c7.09-3.85 8.68-4.2 9.96-2.19 0.83 1.32 1.52 2.78 1.52 3.24 0.01 1.08-19.23 11.65-21 11.53-0.75-0.05-5.61-2.85-10.8-6.23zm75.16 3.99c-4.61-5.55 3.6-13.77 9.16-9.16 1.37 1.14 2.27 4 1.99 6.36-0.37 3.22-1.57 4.42-4.79 4.8-2.36 0.27-5.22-0.63-6.36-2zm-136.97-3.16c-4.23-3.1-2.93-10.13 2.01-10.83 7.34-1.04 11.05 5.36 6.02 10.39-3.18 3.17-4.22 3.23-8.03 0.44zm65.03-11.61c-6.8-4-6.91-4.19-4.62-7.81 1.38-2.17 2.32-2.08 7.49 0.71 5.59 3.01 6.24 3.03 11.66 0.45 5.41-2.58 5.82-2.56 7.34 0.28 1.34 2.51 0.54 3.63-4.76 6.6-7.82 4.4-9.3 4.38-17.11-0.23zm4.09-10.39c-3.93-2.75-4.81-6.49-1.96-8.26 0.96-0.59 2.78-0.2 4.05 0.85 1.68 1.4 3.22 1.43 5.67 0.12 2.74-1.47 3.68-1.2 5.11 1.49 1.5 2.8 1.03 3.66-3.17 5.83-5.98 3.1-5.23 3.1-9.7-0.03zm0.58-16.63c-3.17-3.17-3.23-4.21-0.44-8.03 3.1-4.23 10.13-2.93 10.83 2.01 1.04 7.34-5.36 11.05-10.39 6.02z"/>
  <path d="m197.6 303.52c-2.49-4.28-1.1-9.68 3.06-11.86 3.46-1.8 3.41-1.87-1.01-1.25-3.95 0.55-4.58 0.11-4.15-2.88 0.37-2.57 2.07-3.8 6.32-4.55 3.56-0.63 4.36-1.11 2.07-1.24-4.58-0.27-4.84-2.83-0.52-5.14 6.83-3.66 15.05 0.23 15.05 7.12 0 3.31-1.77 3.55-5.04 0.7-1.31-1.14-0.64-0.08 1.49 2.35 2.73 3.13 3.53 5.49 2.72 8.03l-1.14 3.61-4.14-3.88-4.15-3.88 1.98 4.36c1.49 3.28 1.51 5.23 0.09 7.88-2.35 4.39-10.21 4.78-12.63 0.63zm41.9-8.36c-1.63-1.81-2.35-4.58-1.83-7.06 0.84-3.97 0.79-3.95-1.77 0.48-1.45 2.51-3.28 4.56-4.07 4.56-2.44 0-3.52-5.06-1.78-8.31 2.45-4.59 2-6.08-0.72-2.38-2.26 3.07-2.43 3.08-3.54 0.21-2.8-7.24 8.08-17.17 13.7-12.5 2.04 1.69 1.83 2.31-1.45 4.12-4.66 2.59-3.2 2.88 2.89 0.56 3.17-1.2 5.13-1.15 6.75 0.2 3.25 2.7 2.84 4.82-0.93 4.82-1.78 0-3.77 0.87-4.43 1.94-0.82 1.34-0.26 1.58 1.81 0.79 3.6-1.38 9.16 3.09 9.16 7.37 0 1.62-1.17 4.12-2.61 5.55-3.44 3.45-7.87 3.31-11.18-0.35zm-22.37-19.06c-2.27-2.42-3.05-4.56-2.16-5.99 1.06-1.71 1.66-1.76 2.62-0.21 0.96 1.54 1.57 1.49 2.63-0.23 2.51-4.06 5.21 0.69 3.28 5.77-2.03 5.35-1.97 5.34-6.37 0.66zm-33.2-3.08c0.73-4.98 0.66-5.05-1.88-1.88-6.2 7.72-16.47 3.94-14.17-5.22 1.22-4.85 8.05-7.63 11.14-4.54 3.14 3.14 5.23 2.08 2.3-1.16-3.45-3.81-3.44-4.65 0.04-5.99 1.79-0.68 4.02 0.31 6.23 2.77 1.89 2.11 2.87 3.11 2.19 2.22-2.12-2.74-1.39-4.27 2.03-4.27 4.66 0 8.76 6.9 7.38 12.41-1.3 5.19-5.36 7.37-7.48 4.02-1.11-1.76-1.47-1.46-1.49 1.24-0.02 3.02-2.85 5.58-6.16 5.58-0.49 0-0.54-2.33-0.13-5.18zm16.83-2.31c0.58-1.51 1.06-3.81 1.06-5.1 0-1.3 1.12-2.36 2.49-2.36s2.49 1.12 2.49 2.49 0.59 2.49 1.32 2.49c1.66 0 1.6-7.59-0.08-9.27-2.05-2.05-1.41-4.01 1.3-4.01 1.4 0 3.15-1.62 3.88-3.6 0.88-2.39 1.74-2.95 2.53-1.66 0.67 1.06 3.01 1.94 5.21 1.94 2.81 0 3.72 0.71 3.07 2.41-0.51 1.33 0.36 4.13 1.92 6.23 1.64 2.2 2.45 2.64 1.91 1.04-1.44-4.29 3.43-5.02 6.29-0.94 3.45 4.93 3.24 5.67-1.97 6.97-3.33 0.84-5.08 0.35-6.74-1.89-2.16-2.92-2.33-2.91-4.64 0.2-1.86 2.51-2.84 2.79-4.38 1.25-2.93-2.94-4.35-2.44-4.94 1.75-0.41 2.9-1.79 3.86-6.15 4.27-4.66 0.45-5.44 0.07-4.57-2.21zm35.18-11.72c-1.91-2.91-2.44-5.84-1.69-9.29 0.93-4.22 1.76-4.91 5.09-4.27 3.05 0.58 3.99 0.03 3.99-2.33 0-2.05 1.19-3.09 3.53-3.09 3.04 0 3.39 0.69 2.51 5.06-0.63 3.14-0.39 4.68 0.62 4.05 0.9-0.55 1.64-2 1.64-3.22 0-3.96 8.47-4.81 12.07-1.21 6.86 6.86-3.6 17.07-10.99 10.72-3.43-2.94-3.44-2.94-0.6 1.56 3.59 5.7 3.56 6.28-0.36 6.28-1.76 0-4.75-1.97-6.64-4.37-1.89-2.41-3.44-3.57-3.44-2.59s0.76 2.26 1.68 2.83c0.93 0.57 1.26 1.74 0.74 2.59-1.74 2.8-5.32 1.61-8.15-2.72zm-37.91-3.22c-2.9-3.99-2.88-4.07 1.25-5.11 5.4-1.35 10.96 0.5 7.64 2.55-1.25 0.77-1.81 2.6-1.25 4.06 1.65 4.29-4.27 3.12-7.64-1.5zm28.05-3.19c0.65-1.71 0.07-2.61-1.67-2.61-4.85 0-2.77-4.55 2.58-5.62 2.88-0.57 5.47-0.82 5.75-0.54 1.5 1.5-2.51 10.39-4.89 10.85-1.94 0.37-2.47-0.25-1.77-2.08zm-16.87-4.71c-0.49-1.27-0.09-4.42 0.89-6.99l1.78-4.68 4.13 3.88c4.33 4.07 4.6 7.37 0.61 7.44-1.29 0.03-3.29 0.63-4.44 1.35-1.24 0.78-2.44 0.38-2.97-1zm-16.54-1.24c-0.56-0.92 0.7-2.35 2.81-3.18 3.12-1.22 2.47-1.46-3.45-1.23-8.51 0.32-10.85-2.74-4-5.24l4.65-1.69-4.5-0.13c-5.87-0.17-9.03-5.58-6.5-11.14 3.64-7.97 16.01-2.66 14.17 6.08-0.6 2.84-0.05 2.35 1.77-1.61 2.39-5.18 2.87-5.46 5.24-3.1 2.09 2.1 2.22 3.31 0.67 6.21-1.06 1.99-1.57 4.5-1.12 5.59 0.44 1.09 0.86 0.62 0.94-1.06 0.07-1.68 1.05-2.71 2.2-2.31 2.96 1.05 1.88 9.92-1.51 12.4-3.43 2.51-9.93 2.74-11.37 0.41zm25.62-7.59c-3.86-4.11-3.33-10.61 0.64-7.94 1.18 0.79 0.79 0.19-0.85-1.32-3.05-2.82-3.86-6.6-1.86-8.61 0.62-0.61 2.86 0.51 4.98 2.51 3.72 3.49 5.69 2.21 2.11-1.37-2.99-2.98-0.04-10.14 4.66-11.32 6.33-1.59 11.11 3.62 8.83 9.62-0.93 2.45-2.79 4.45-4.13 4.45-1.33 0-2.88 0.74-3.44 1.64-0.63 1.01 0.91 1.25 4.05 0.62 4.38-0.87 5.07-0.53 5.07 2.52 0 2.31-1.05 3.52-3.04 3.52-2.06 0-3 1.18-2.91 3.64 0.1 2.8-1.09 3.9-5.18 4.76-4.29 0.9-6.02 0.37-8.93-2.72z"/>
  <path d="m517.31 218.26c0-1.74-0.75-3.16-1.66-3.16-3.07 0-1.7-3.62 1.69-4.51 2.53-0.66 2.92-1.41 1.57-3.03-1.36-1.64-0.7-2.69 2.75-4.36 2.49-1.22 4.84-3.15 5.21-4.29 0.95-2.91-3.74-2.6-6.24 0.41-2.94 3.54-7.29 3.26-5.9-0.37 0.83-2.15 0.09-1.92-2.97 0.95-2.77 2.61-4.44 3.22-5.24 1.93-0.64-1.04-0.73-2.33-0.2-2.87 0.54-0.53-0.32-1.98-1.91-3.21-2.71-2.11-2.69-2.38 0.35-4.73 1.77-1.37 2.55-2.49 1.74-2.49-0.82 0-0.6-0.88 0.47-1.95 1.5-1.5 2.81-1.21 5.6 1.24 2.01 1.76 3.13 2.32 2.5 1.24-1.87-3.22 2.22-4.38 5.38-1.52 3.37 3.05 6.82 3.48 6.82 0.85 0-1-2.24-2.65-4.98-3.69-3.67-1.38-4.73-2.65-4.04-4.83 0.63-1.98 0.08-2.96-1.66-2.96-1.43 0-2.6-1.12-2.6-2.49s0.79-2.49 1.75-2.49c0.97 0 1.35-0.67 0.85-1.48s0.21-2.39 1.56-3.52c1.97-1.63 2.99-1.63 4.97 0.02 1.85 1.54 2.49 1.56 2.49 0.1 0-1.08 0.82-1.46 1.82-0.84 0.99 0.62 1.49 2.8 1.1 4.85-0.53 2.79-0.04 3.56 1.94 3.04 1.97-0.51 2.65 0.51 2.63 3.96-0.01 2.56 0.73 4.66 1.64 4.66s1.47-2.05 1.24-4.57c-0.3-3.21 0.35-4.56 2.18-4.56 1.72 0 2.43-1.22 2.08-3.58-0.28-1.97 0.42-3.9 1.56-4.29s2.07 0.19 2.07 1.29c0 1.56 0.54 1.56 2.42 0 3.14-2.61 6.4-0.55 5.37 3.39-0.44 1.69-0.04 2.91 0.89 2.72 0.94-0.2 2.04 0.57 2.46 1.71s-0.42 2.08-1.86 2.08c-1.45 0-2.64 1.31-2.64 2.9-0.01 1.6-2.44 4.35-5.4 6.11-4.4 2.61-4.83 3.32-2.36 3.88 1.67 0.38 4.42-0.58 6.12-2.12 3.29-2.97 7.47-1.93 5.54 1.38-0.63 1.08 0.35 0.65 2.18-0.94 3.8-3.33 5.55-3.69 5.55-1.13 0 0.98 1.13 2.91 2.51 4.28 2.77 2.77 1.9 5.56-1.73 5.56-1.28 0-1.95 1.01-1.48 2.23 1.08 2.82-8.46 2.66-13.72-0.23-4.92-2.71-7.26-2.51-6.1 0.51 0.53 1.38 2.81 2.97 5.07 3.53 2.9 0.73 3.87 1.9 3.33 4-0.51 1.92 0.32 3.25 2.35 3.78 3.23 0.84 4.42 4.45 1.47 4.45-0.92 0-1.66 1.14-1.66 2.54 0 3.47-4.97 5.13-6.79 2.27-1.05-1.66-1.47-1.73-1.49-0.24-0.01 1.14-0.77 2.07-1.69 2.07-0.91 0-1.66-1.84-1.66-4.1 0-3.13-0.64-3.85-2.75-3.04-2.3 0.88-2.59 0.24-1.77-3.87 1.19-5.93-1.27-11.39-3.05-6.77-0.61 1.59-0.7 4.42-0.22 6.28 0.55 2.07-0.03 3.76-1.47 4.31-1.3 0.5-2.36 2.17-2.36 3.72 0 2.08-1.52 2.86-5.81 2.98-4.66 0.13-5.81-0.46-5.81-2.99z"/>
  <path d="m370.27 333.87c-3.09-5.73-3.09-5.74 0.88-9.98l3.98-4.23 3.12 4.92c3.24 5.12 2.5 8.9-2.57 13.11-1.87 1.55-2.93 0.8-5.41-3.82zm33.25-7c-6.57-7.61-8.05-10.43-7.63-14.53 0.77-7.37 1.38-7.75 7.68-4.75 5.02 2.4 5.89 3.79 7.47 11.98 0.98 5.1 2.15 10.95 2.58 13.01 1.26 5.91-1.34 4.44-10.1-5.71zm-68.87 3.22c0-0.79 1.73-6.56 3.85-12.83 3.51-10.4 4.39-11.59 9.96-13.52l6.12-2.12v6.97c0 6.26-0.8 7.65-7.89 13.71-9.34 7.99-12.04 9.73-12.04 7.79zm46.24-9.77l-6.06-4.17-7.03 3.59c-5.69 2.9-7.3 3.16-8.44 1.36-0.77-1.22-1.42-2.79-1.43-3.49-0.03-1.15 8.78-7.18 12.16-8.32 0.77-0.26 1.65-5.07 1.95-10.68 0.31-5.61 1.46-11.89 2.56-13.94 1.96-3.67 2.06-3.68 4.42-0.55 1.82 2.41 2.18 5.95 1.45 14.2l-0.97 11 6.64 4.39c7.12 4.71 7.73 5.89 4.64 8.99-2.58 2.58-2.73 2.54-9.89-2.38zm6.36-10c-0.6-0.6-0.63-4.99-0.07-9.74 0.66-5.64 0.36-9.05-0.85-9.8-2.31-1.43-2.48-10.92-0.2-10.92 2.57 0 8.3 6.34 8.3 9.19 0 1.44 3.27 3.95 7.55 5.78 6.85 2.94 7.37 3.56 5.68 6.72-1.26 2.35-2.75 3.11-4.64 2.33-5.73-2.36-7.76-1.63-8.28 2.96-0.51 4.36-4.67 6.29-7.49 3.48zm-29.97-3.11c-0.57-1.5-1.04-4.13-1.04-5.86 0-2.7-0.61-2.91-4.29-1.51-5.03 1.91-7.33 0.9-7.33-3.21 0-2.02 2.13-3.6 6.72-4.98 4.2-1.26 7.37-3.46 8.48-5.89 0.97-2.13 3.55-4.69 5.74-5.68 3.61-1.65 3.96-1.44 3.96 2.36 0 2.3-1.18 5.99-2.64 8.21-1.68 2.57-2.43 6.6-2.07 11.15 0.49 6.2 0.11 7.18-2.96 7.62-2.08 0.3-3.95-0.61-4.57-2.21zm54.41-5.64l1.09-8.17-9.06-5.53c-7.63-4.65-12.61-10.19-12.61-14.03 0-1.22 10.59 1.17 11.62 2.62 0.46 0.64 3.72 3.1 7.24 5.46l6.41 4.3 7.57-3.24c6.01-2.57 7.85-2.8 8.93-1.11 2.52 3.99 1.42 5.78-5.16 8.36-6.17 2.43-6.63 3.09-7.69 11.05-1.01 7.62-1.53 8.47-5.27 8.47-4.01 0-4.12-0.28-3.07-8.18zm14.52 2.2c-3.21-7.05-2.42-8.97 3.72-8.97 4.68 0 5.96 0.84 7.7 5.04 2.41 5.83 2.43 5.8-4.37 7.09-4.38 0.83-5.45 0.35-7.05-3.16zm-93.91-7.16c1.08-8.12 1.06-8.16-5.75-12.67-7.48-4.94-8.01-6.02-4.47-8.96 1.87-1.55 3.76-1.08 9.09 2.28l6.73 4.25 7.51-3.65c4.13-2 7.51-4.24 7.51-4.97 0-0.74 2.61-1.33 5.81-1.33s5.8 0.56 5.78 1.24c-0.1 3.08-6.5 8.37-14.5 11.99-7.22 3.26-8.72 4.67-8.74 8.22-0.04 8.3-1.82 11.76-6.04 11.76-3.84 0-3.97-0.34-2.93-8.16zm-13.84 3.48c-5.92-0.57-6.32-1.44-3.47-7.7 1.35-2.96 3.22-4.22 6.23-4.2 7.19 0.04 8.48 1.83 5.39 7.44-2.31 4.19-3.61 4.9-8.15 4.46zm95.96-23.7c-3.16-2.66-7.69-4.83-10.06-4.83s-5.76-1.11-7.54-2.46c-2.79-2.13-2.88-2.69-0.73-4.13 1.37-0.92 5.11-1.68 8.3-1.7 3.2-0.02 8.06-1.52 10.8-3.34 6.11-4.05 8.45-4.16 9.86-0.48 0.73 1.88-0.19 3.8-2.7 5.7l-3.8 2.86 3.74 3.98c3.56 3.79 3.6 4.11 0.81 6.61-2.7 2.41-3.39 2.23-8.68-2.21zm-42.82-2.63c-2.63-1.84-3.74-4.28-3.74-8.24 0-4.55 1.02-6.25 5.27-8.84 5.35-3.25 6.88-3.02 13.65 2.03 4.53 3.39 2.51 13.29-3.25 15.91-5.4 2.46-7.36 2.32-11.93-0.86zm54.3-1.46c-3.38-3.59-3.61-4.49-1.54-5.87 7.49-4.98 8.41-5.06 18.73-1.6 13.94 4.68 16.25 6.23 11.03 7.43-23.18 5.31-23.27 5.31-28.22 0.04zm-94.07-0.17c-0.67-1.77 0.32-3.87 2.79-5.86l3.84-3.11-3.56-3.79c-3.17-3.38-3.3-4.15-1.19-7.01 2.3-3.12 2.55-3.05 7.96 2.18 3.79 3.65 7.21 5.39 10.6 5.39 2.75 0 6.39 1.02 8.1 2.27 3.01 2.2 3 2.34-0.4 4.16-1.93 1.03-5.99 1.89-9.02 1.91s-7.37 1.5-9.65 3.29c-5.11 3.99-8.08 4.17-9.47 0.57zm-21.09-6.49c-6.3-2.2-11.76-4.3-12.13-4.67-1.3-1.3 24.47-6.23 27.52-5.26 1.71 0.54 4.37 2.38 5.91 4.08 2.66 2.94 2.55 3.28-2.11 6.6-5.89 4.19-4.94 4.23-19.19-0.75zm82.03-6.65c0-3.65 4.76-7.82 13.3-11.65l9.95-4.47v-8.07c0-7.51 0.29-8.08 4.15-8.08 3.9 0 4.15 0.53 4.16 8.72 0.01 8.43 0.24 8.84 6.67 12.52 5.76 3.28 6.42 4.24 4.91 7.05-2.19 4.09-2.11 4.09-10.48-0.81l-6.95-4.08-8.97 4.91c-8.04 4.39-16.74 6.46-16.74 3.96zm-34.05-2.13c-1.83-0.59-6.86-3.53-11.17-6.53l-7.84-5.45-6.61 3.38c-8.09 4.12-7.89 4.12-10.07 0.05-1.57-2.93-0.91-3.73 5.76-6.97 7.37-3.58 7.52-3.82 7.52-11.63 0-7.39 0.3-7.97 4.16-7.97s4.15 0.56 4.15 8.22c0 7.96 0.25 8.4 7.88 13.52 8.71 5.84 12.04 9.33 12.04 12.62 0 2.34-0.68 2.43-5.82 0.76zm27.41-6.95c0-1.86 1.31-5.38 2.9-7.83 1.69-2.58 2.91-7.61 2.91-11.98 0-6.54 0.49-7.6 3.74-8.06 3.26-0.46 3.73 0.2 3.73 5.31 0 5.81 0.03 5.83 5.16 4.04 4.08-1.42 5.47-1.31 6.62 0.5 2.62 4.14 1.59 6.17-3.72 7.34-2.88 0.63-8.08 4.05-11.56 7.6-7.08 7.23-9.78 8.08-9.78 3.08zm-17.89 0.61c-1.16-0.47-3.23-3.02-4.6-5.67-1.37-2.64-5.46-6.33-9.09-8.18-6.98-3.56-7.47-4.36-5.05-8.19 1.24-1.96 2.32-2.03 5.87-0.42 5.7 2.6 5.42 2.73 6.68-3 0.74-3.36 2.1-4.98 4.19-4.98 4.33 0 4.95 1.73 3.29 9.1-1.06 4.7-0.81 7.67 0.93 11.04 2.54 4.91 3.21 11.5 1.14 11.28-0.69-0.07-2.2-0.51-3.36-0.98zm8.54-4.29c-0.69-2.05-1.04-8.15-0.77-13.55 0.48-9.52 0.3-9.99-5.6-14.95-4.38-3.68-5.78-5.94-4.97-8.03 1.51-3.93 3.3-3.67 10.03 1.46l5.73 4.37 7.49-3.95c6.49-3.42 7.71-3.62 9.08-1.46 2.47 3.86 2.14 4.37-5.83 9.04l-7.47 4.38-0.05 10.31c-0.07 13.15-4.78 20.8-7.64 12.38zm52.78-4.37c-1.85-1.17-1.8-2.25 0.29-6.3 2.22-4.28 3.25-4.79 8.46-4.19 6.83 0.8 6.74 0.61 3.4 7.06-2.57 4.97-7.52 6.37-12.15 3.43zm-110.62-10.57c-1.25-2.97-2.15-5.48-2-5.57 0.16-0.1 2.7-0.64 5.66-1.2 4.73-0.91 5.67-0.45 7.88 3.83 3.67 7.09 3.17 8.34-3.38 8.34-5.07 0-6.21-0.75-8.16-5.4zm82.77-7.51c-1.1-5.84-0.76-6.4 9.46-15.57 5.83-5.23 10.87-9.23 11.21-8.89 0.84 0.84-6.42 22.76-8.34 25.2-0.85 1.07-3.71 2.7-6.37 3.63-4.66 1.63-4.86 1.48-5.96-4.37zm-49.65-0.13c-4.4-2.68-5.27-4.52-7.06-14.97-1.12-6.55-2.04-12.72-2.04-13.72 0-1.78 14.46 13.38 17.18 18.02 1.53 2.61-0.01 13.75-1.9 13.74-0.64-0.01-3.43-1.39-6.18-3.07zm26.79-15.96c-3.54-5.41-3.39-7.4 0.91-11.98l3.6-3.83 3.08 5.07c3.03 4.99 3.03 5.16-0.39 9.95-1.91 2.68-3.71 4.88-3.99 4.88-0.29 0-1.74-1.84-3.21-4.09z"/>
  <path d="m400.63 152.67c-0.54-0.55-0.54-2.16 0.01-3.59 0.66-1.72 0.34-2.2-0.95-1.4-1.15 0.71-1.94 0.19-1.94-1.28 0-1.36 1.6-2.98 3.54-3.6 2.79-0.89 3.06-1.44 1.25-2.6-1.93-1.25-1.9-1.74 0.19-3.12 1.37-0.9 3.35-1.64 4.39-1.66 1.05-0.01 2.33-1.14 2.86-2.51 1.28-3.35-4.49-3.33-7.26 0.02-1.59 1.91-2.63 2.06-4.36 0.62-1.7-1.41-2.89-1.37-4.76 0.19-1.37 1.13-2.49 1.6-2.49 1.03 0-2.84-0.42-3.63-2.61-4.85-3.07-1.72-2.99-3.66 0.35-8.75 2.49-3.81 2.94-3.93 5.6-1.53 2.64 2.39 2.99 2.37 3.96-0.17 0.99-2.59 1.29-2.59 4.07-0.07 1.65 1.49 4.35 2.71 5.98 2.71 2.46 0 2.62-0.43 0.92-2.49-1.14-1.37-3.06-2.49-4.26-2.49-3.18 0-4.83-3.47-2.38-4.98 1.5-0.93 1.09-1.62-1.45-2.42-3.46-1.1-4.99-4.22-2.06-4.22 0.81 0 1.37-1.31 1.24-2.9-0.18-2.25 1.22-2.988 6.2-3.265 6.36-0.355 6.41-0.312 5.5 4.975-0.5 2.94-0.52 4.4-0.05 3.26 1.67-4.06 3.9-1.98 3.9 3.64 0 3.14 0.74 6.18 1.66 6.74 1.8 1.12 2.19-0.72 1.68-8.12-0.26-3.9 0.21-4.6 2.5-3.72 2.33 0.9 2.65 0.37 1.8-3.01-0.97-3.86-0.65-4.085 5.21-3.76 4.29 0.238 6.24 1.13 6.24 2.84 0 1.37 1.11 3.18 2.47 4.03 1.99 1.25 1.5 1.96-2.49 3.67-2.73 1.16-4.02 2.14-2.88 2.18 3.6 0.13 2.25 3.42-2.08 5.06-2.28 0.87-4.15 2.35-4.15 3.28 0 2.56 4.29 2.05 6.64-0.79 2.73-3.28 4.98-3.16 4.98 0.26 0 2.54 0.24 2.53 3.1-0.05 2.93-2.66 3.25-2.57 5.98 1.6 2.77 4.22 2.3 7.51-1.95 13.82-0.26 0.37-1.96-0.68-3.8-2.34-2.99-2.7-3.33-2.73-3.33-0.26 0 3.42-2.25 3.54-4.98 0.26-1.13-1.37-3.65-2.47-5.6-2.44-3.52 0.06-3.52 0.06 0.23 3.19 2.06 1.72 4.68 3.51 5.81 3.97 1.54 0.63 1.46 1.25-0.35 2.51-1.93 1.34-1.51 1.9 2.15 2.81 4.09 1.03 5.52 5.39 1.49 4.55-0.92-0.19-1.58 0.93-1.46 2.49 0.17 2.15-1.27 2.92-6.02 3.18-5.87 0.33-6.18 0.11-5.21-3.75 0.85-3.37 0.53-3.91-1.78-3.02-2.35 0.9-2.72 0.18-2.26-4.38 0.33-3.32-0.27-5.75-1.53-6.18-1.4-0.49-2.07 1.19-2.07 5.23 0 5.86-2.14 7.93-4 3.87-0.52-1.14-0.52 0.36 0 3.33 0.91 5.21 0.75 5.39-4.73 5.39-3.11 0-6.11-0.45-6.66-0.99z"/>
  <path d="m262.56 511.57c4.57 2.06 4.98 8.64 0.83 13.32-2.82 3.18-2.79 3.22 0.72 1.38 8.62-4.52 10.17 1.22 1.77 6.55-3.78 2.4-4.28 3.11-1.66 2.36 5.5-1.58 4.86 3.43-0.81 6.41-3.95 2.06-5.16 2.06-9.14 0.01-5.69-2.95-6.34-7.95-0.85-6.54 2.26 0.58 1.6-0.15-1.66-1.85-3.08-1.6-5.39-4.1-5.39-5.82 0-3.49 2.04-3.81 7.16-1.12 3.52 1.84 3.54 1.8 0.72-1.38-6.68-7.54-0.59-17.31 8.31-13.32zm37.36 21.75c6.92 5.25 1.05 15.77-7.54 13.51l-3.67-0.97 3.74 2.74c2.05 1.51 3.73 3.32 3.73 4.02 0 2.86-5.43 3.08-9.63 0.4-4.24-2.7-4.36-2.7-2.22 0 3.35 4.23-1.59 5.62-7.11 2-3.16-2.07-4.29-4.23-4.29-8.25 0-6.42 4.38-9.32 5.49-3.63 0.41 2.15 0.8 1.08 0.93-2.58 0.12-3.43 0.54-6.23 0.92-6.23s1.88-0.45 3.32-1.01c2.05-0.79 2.68 0.22 2.88 4.57 0.21 4.67 0.35 4.87 0.92 1.23 0.4-2.61 2.31-5.09 4.81-6.23 4.92-2.24 4.15-2.28 7.72 0.43zm-73.98-0.33c2 0.97 3.94 3.73 4.31 6.12 0.57 3.66 0.71 3.47 0.92-1.22 0.2-4.35 0.83-5.36 2.88-4.57 1.44 0.56 2.94 1.01 3.32 1.01s0.78 2.43 0.89 5.4c0.1 2.96 0.52 4.13 0.93 2.58 1.28-4.85 5.52-1.42 5.52 4.46 0 4.02-1.12 6.18-4.29 8.25-5.52 3.62-10.46 2.23-7.11-2 2.14-2.7 2.02-2.7-2.22 0-4.2 2.68-9.63 2.46-9.63-0.4 0-0.7 1.68-2.51 3.74-4.02l3.73-2.74-3.67 0.97c-8.59 2.26-14.46-8.26-7.54-13.51 3.43-2.6 3.5-2.6 8.22-0.33zm44.23 10.75c2.06 2.06 1.12 8.49-1.39 9.45-1.54 0.6-2.49 0-2.49-1.59 0-1.79-0.98-2.24-3.32-1.5-4.99 1.59-4.21-3.21 0.91-5.54 4.96-2.26 4.86-2.25 6.29-0.82zm-15.92 0.92c4.77 2.29 5.12 6.94 0.42 5.44-2.34-0.74-3.32-0.29-3.32 1.5 0 1.62-0.94 2.19-2.58 1.56-1.62-0.62-2.39-2.57-2.08-5.22 0.59-4.95 2.43-5.74 7.56-3.28zm10.38 10.51c0 1.23 1.17 2.89 2.6 3.69 2.35 1.32 2.35 1.66 0 3.61-1.43 1.19-2.6 3.11-2.6 4.28 0 1.3-2.17 2.12-5.66 2.12-4.22 0-5.88-0.83-6.51-3.25-0.73-2.79-1.32-2.96-4.14-1.2-2.71 1.7-4.07 1.54-7.79-0.89l-4.5-2.95 4.76-2.94c5.55-3.43 7.8-2.78 6.33 1.85-1.01 3.18-0.93 3.19 2.42 0.32 1.91-1.64 3.47-3.85 3.47-4.93 0-1.13 2.46-1.95 5.81-1.95 3.77 0 5.81 0.78 5.81 2.24zm12.23 2.47l4.75 2.94-4.33 2.83c-2.45 1.61-5.56 2.36-7.19 1.73-2.15-0.82-2.35-1.43-0.79-2.39 1.15-0.71 1.64-2.46 1.09-3.89-1.53-3.97 1.19-4.48 6.47-1.22zm8.24 7.67c0.6 0.6 0.16 2.27-0.97 3.71-1.71 2.16-1.29 2.12 2.42-0.25 4.2-2.68 9.63-2.45 9.63 0.4 0 0.71-1.68 2.52-3.73 4.02l-3.74 2.74 3.67-0.97c5.54-1.46 10.44 1.91 10.44 7.18 0 9.75-13.94 10.23-15.43 0.53-0.57-3.64-0.71-3.44-0.92 1.24-0.2 4.34-0.83 5.35-2.88 4.56-1.44-0.55-2.94-1.01-3.32-1.01s-0.8-2.8-0.92-6.22c-0.13-3.67-0.52-4.73-0.93-2.58-1.11 5.68-5.49 2.78-5.49-3.64 0-3.95 1.13-6.17 4.1-8.12 4.43-2.91 6.37-3.29 8.07-1.59zm-44.13 1.69c2.58 1.8 3.74 4.28 3.74 8.04 0 5.86-4.24 9.28-5.52 4.45-0.41-1.55-0.83-0.39-0.93 2.58-0.11 2.97-0.51 5.39-0.89 5.39s-1.88 0.46-3.32 1.01c-2.05 0.79-2.68-0.22-2.88-4.56-0.2-4.68-0.35-4.88-0.91-1.24-1.5 9.7-15.44 9.22-15.44-0.53 0-5.27 4.9-8.64 10.44-7.18l3.67 0.97-3.73-2.74c-2.06-1.5-3.74-3.31-3.74-4.02 0-2.85 5.43-3.08 9.63-0.4 3.71 2.37 4.13 2.41 2.42 0.25-3.89-4.94 1.27-6.34 7.46-2.02zm29.2 1.65c1.51 1.51 1.35 5.9-0.32 8.52-1.09 1.73-2.25 1.76-5.78 0.15-5.25-2.39-6.2-7.25-1.1-5.63 2.36 0.75 3.32 0.3 3.32-1.55 0-2.69 1.94-3.43 3.88-1.49zm-18.82 1.35c0 1.99 0.91 2.45 3.32 1.69 5.09-1.62 4.16 3.24-1.08 5.62-5.21 2.38-7.75 0.59-6.95-4.88 0.65-4.41 4.71-6.5 4.71-2.43zm12.06 10.21c5.66 2.96 6.28 7.92 0.81 6.52-2.26-0.58-1.6 0.16 1.66 1.85 3.08 1.6 5.39 4.1 5.39 5.83 0 3.48-2.04 3.8-7.16 1.12-3.56-1.87-3.57-1.84-0.59 1.52 3.73 4.21 3.08 10.04-1.46 13.03-2.89 1.91-3.94 1.87-7.05-0.32-4.41-3.08-4.72-8.39-0.76-12.86 2.82-3.17 2.8-3.22-0.72-1.37-5.12 2.68-7.16 2.36-7.16-1.12 0-1.73 2.31-4.23 5.39-5.83 3.26-1.69 3.92-2.43 1.66-1.85-5.49 1.41-4.84-3.59 0.85-6.53 3.98-2.06 5.19-2.06 9.14 0.01z"/>
  <path d="m393.67 607.39c0.48 1.83 1.53 3.32 2.33 3.32 0.81 0 1.47 1.12 1.47 2.49s-1.21 2.49-2.68 2.49c-1.84 0-2.42 1.02-1.85 3.22 0.64 2.43-0.34 3.64-3.95 4.9-2.64 0.92-4.8 2.46-4.8 3.42 0 2.45 3.56 2.08 7.3-0.74 3.47-2.63 6.69-1.74 4.89 1.36-0.63 1.07 0.43 0.58 2.36-1.11 3.29-2.88 8.09-2.48 6.24 0.52-0.47 0.75 0.27 1.8 1.63 2.32 3.19 1.22 3.15 3.47-0.13 6.75-1.43 1.44-2.13 2.61-1.56 2.61 0.58 0 0.56 0.78-0.03 1.74-0.73 1.19-1.81 1.13-3.42-0.2-1.75-1.46-2.91-1.47-4.61-0.06-1.73 1.43-2.77 1.28-4.35-0.63-2.35-2.83-9.14-3.52-7.43-0.75 0.6 0.97 2.97 2.48 5.26 3.35 3.33 1.27 3.78 2.05 2.24 3.91-1.53 1.84-1.22 2.55 1.48 3.4 3.48 1.11 4.76 4.18 1.75 4.18-0.91 0-1.66 1.5-1.66 3.32 0 3.73-5.8 4.73-7.2 1.25-0.67-1.66-0.87-1.66-0.97 0-0.22 3.48-3.45 2.31-3.45-1.25 0-1.86-1.11-3.32-2.53-3.32-1.86 0-2.25-1.08-1.48-4.14 0.57-2.29 0.55-5.44-0.06-7.01-1.73-4.52-4.45 0.96-3.27 6.59 0.73 3.46 0.32 4.56-1.66 4.56-1.52 0-2.63 1.41-2.63 3.32 0 3.56-3.23 4.73-3.45 1.25-0.1-1.66-0.3-1.66-0.97 0-1.4 3.48-7.2 2.48-7.2-1.25 0-1.82-0.75-3.32-1.66-3.32-3.44 0-1.49-3.3 2.54-4.31 3.76-0.94 3.91-1.27 1.46-3.07-2.44-1.78-2.16-2.25 2.43-4.15 5.24-2.17 6.99-5.07 3.07-5.07-1.17 0-3.73 1.13-5.7 2.51-2.28 1.59-3.96 1.89-4.62 0.82-0.7-1.13-2.1-1.12-4.26 0.04-2.36 1.27-3.22 1.19-3.22-0.28 0-1.1-1.16-3.28-2.57-4.84-2.32-2.56-2.31-3.1 0.12-5.53 1.47-1.47 2.11-2.68 1.4-2.68-0.7 0-0.4-0.88 0.68-1.96 1.49-1.49 2.8-1.2 5.59 1.25 2.01 1.76 3.14 2.31 2.51 1.24-1.88-3.23 2.21-4.39 5.37-1.53 1.61 1.46 3.81 2.66 4.88 2.66 3.45 0 2.06-3.34-2.21-5.29-2.28-1.04-4.15-3.26-4.15-4.94s-1.18-3.06-2.63-3.06-2.29-0.93-1.87-2.07 1.53-1.92 2.46-1.72c0.94 0.2 1.34-1.03 0.89-2.72-1.03-3.94 2.23-6 5.37-3.39 1.84 1.52 2.42 1.53 2.42 0.05 0-1.08 0.75-1.5 1.66-0.94 0.92 0.56 1.66 2.48 1.66 4.25 0 1.83 1.14 3.22 2.63 3.22 1.98 0 2.39 1.11 1.66 4.57-1.24 5.91 1.47 10.8 3.12 5.61 0.61-1.94 0.64-5.03 0.06-6.86-0.74-2.35-0.29-3.32 1.55-3.32 1.54 0 2.61-1.43 2.61-3.5 0-2.39 0.77-3.2 2.43-2.56 1.34 0.51 2.88 0.22 3.42-0.65 1.65-2.67 4.37-1.78 5.29 1.73z"/>
  <path d="m580.54 565.17c3.82 2.07 4.56 3.57 4.56 9.21 0 4.99-0.97 7.53-3.73 9.77-5.6 4.54-2.26 5.9 4.59 1.86 7.54-4.45 7.45-4.47 7.45 1.3 0 3.96-1.34 5.6-7.48 9.2-8.22 4.82-10.41 9.16-2.57 5.11 6.42-3.32 6.73-3.25 6.73 1.59 0 3.15-1.61 4.93-6.86 7.61-6.61 3.37-7.12 3.4-14.12 0.73-5.93-2.27-7.25-3.54-7.25-6.98 0-4.3 1.11-4.47 8.72-1.34 1.59 0.66 2.9 0.47 2.9-0.42s-3.74-3.17-8.3-5.07c-7.37-3.06-8.3-4.01-8.3-8.46v-5.02l7.47 3.2c5.61 2.41 7.47 2.67 7.47 1.04 0-1.19-1.78-2.97-3.95-3.96-2.87-1.31-4.19-3.55-4.81-8.16-0.72-5.38-0.18-6.92 3.54-10.08 5.1-4.33 7.66-4.54 13.94-1.13zm59.78 29.89c3.77 2.05 4.56 3.59 4.56 8.95 0 5.34-0.9 7.12-5.11 10.12-4.28 3.04-5.79 3.33-9.21 1.77-9.58-4.36-9.81-0.85-0.31 4.58 6.48 3.7 6.72 4.1 3.82 6.23-4.23 3.09-7.39 2.84-13.27-1.05-6.74-4.47-11.37-4.27-5.34 0.23 3.66 2.73 4.23 3.92 2.71 5.76-2.69 3.23-4.84 2.91-11.69-1.75-4.85-3.29-6.15-5.39-6.96-11.2-0.77-5.53-0.37-7.63 1.74-9.23 4.04-3.06 5.43-2.56 5.43 1.97 0 2.23 0.85 4.58 1.88 5.22 1.37 0.84 1.57-1.35 0.74-7.96-1.05-8.46-0.84-9.31 2.95-11.79 3.66-2.4 4.19-2.41 5.07-0.11 0.54 1.41 0.98 4.74 0.98 7.41 0 2.91 0.88 4.84 2.21 4.84 1.48 0 1.97-1.56 1.5-4.76-0.56-3.81 0.29-5.46 4.28-8.3 5.83-4.15 7.85-4.28 14.02-0.93zm-101.29 6.71c4.05 2.14 4.58 3.37 4.69 11.07 0.13 8.19 0.23 8.39 1.89 3.68 2.22-6.29 1.99-6.08 5.22-4.84 2.05 0.79 2.73 3.21 2.73 9.8 0 8.06-0.47 9.12-5.8 13.18-4.83 3.69-6.37 4.11-9.29 2.55l-3.49-1.88 3.76-4c5.61-5.98 2.94-6.43-4.25-0.71-7.05 5.6-8.85 5.98-13.23 2.77-2.86-2.08-2.67-2.51 2.98-6.82 6.63-5.06 6.72-9.15 0.11-4.82-3.82 2.51-4.59 2.49-10.7-0.27-5.99-2.7-6.59-3.54-6.59-9.25 0-5.14 0.94-6.95 5.24-10l5.23-3.73 5.95 3.2c3.28 1.76 6.2 4.69 6.49 6.52 1.26 7.83 2.74 7.72 3.58-0.28l0.91-8.58 4.57 2.41zm55.33 11.15c1.93 5.03-0.02 15.18-3.03 15.75-2.01 0.38-2.9-0.51-2.9-2.89 0-3.92-0.61-4.13-5.1-1.73-2.75 1.48-3.21 1.16-3.21-2.18 0-5.01 12.69-12.99 14.24-8.95zm-27.94 2.76c3.89 1.74 7.06 3.52 7.06 3.95 0 0.42 0.5 2.07 1.1 3.65 0.93 2.41 0.41 2.7-3.2 1.79-3.41-0.85-4.54-0.38-5.37 2.24-1.15 3.63-2.19 3.99-5.5 1.9-1.42-0.9-2-4.05-1.66-9.04l0.52-7.66 7.05 3.17zm20.34 16.51c0 3.41 1 5.18 3.33 5.92 4.26 1.35 4.22 3.55-0.11 5.87-2.4 1.28-3.27 3.15-2.92 6.28 0.37 3.29-0.15 4.27-1.97 3.75-3.78-1.06-8.8-0.81-12.02 0.61-2.35 1.03-2.91 0.46-2.91-3 0-2.95-1.38-5-4.46-6.61l-4.46-2.34 3.63-2.26c2.52-1.58 3.63-3.92 3.63-7.65 0-5.13 0.19-5.29 4.15-3.48 3.12 1.42 5.2 1.41 8.38-0.04 5.72-2.6 5.73-2.6 5.73 2.95zm19.52 3.01c2.96 1.47 5.39 3.25 5.39 3.96 0 2.68-11.25 9.78-13.89 8.77-3.39-1.3-3.44-3-0.19-5.7 2.24-1.85 2.13-2.37-0.85-4.47-3.75-2.62-3.03-5.52 1.33-5.36 1.55 0.06 5.24 1.32 8.21 2.8zm-46.15 0.34c2.09 1.32 2.03 1.98-0.46 4.73-2.75 3.04-2.73 3.29 0.55 5.49 3.29 2.22 3.31 2.39 0.39 4.19-2.46 1.51-4.43 1.07-10.08-2.27l-7.02-4.14 6.27-4.75c7.08-5.35 7.04-5.34 10.35-3.25zm58.74 10.25c2.9 1.69 2.86 1.96-0.7 5.76-5.51 5.86-3.04 6.36 3.57 0.71 6.34-5.43 9.45-6.07 13.85-2.85 2.75 2.01 2.53 2.51-3.03 6.75-6.61 5.04-6.6 9.28 0.01 4.95 3.83-2.51 4.59-2.49 10.71 0.27 5.99 2.7 6.58 3.54 6.58 9.25 0 5.11-0.94 6.95-5.1 9.91-5 3.56-5.22 3.57-11.62 0.69-5.33-2.4-6.52-3.79-6.52-7.57 0-2.55-0.75-5.1-1.66-5.66-1.02-0.63-1.66 1.83-1.66 6.26 0 8.81-0.82 9.83-5.98 7.47-3.48-1.58-3.99-2.94-3.99-10.58 0-4.82-0.74-9.23-1.66-9.79-0.99-0.62-1.66 1.36-1.66 4.88 0 6.45-0.34 6.73-5.09 4.19-2.42-1.3-3.21-3.5-3.21-8.99 0-6.47 0.71-7.84 6.46-12.4 7.33-5.8 6.66-5.6 10.7-3.25zm-68.39 7.28c5.29 3.46 6.13 4.93 6.66 11.67 0.48 5.98-0.02 8.05-2.21 9.22-4.07 2.18-4.32 2.02-5.53-3.49-1.8-8.18-3.86-4.04-2.26 4.53 1.34 7.14 1.13 8.16-2.23 10.69-4.45 3.36-6.3 2.56-6.3-2.71 0-5.16-1.61-9.17-3.69-9.17-0.92 0-1.34 2.26-0.93 5.02 0.63 4.27-0.1 5.53-4.86 8.48-4.91 3.03-6.21 3.2-10.65 1.36-4.97-2.06-8.1-7.13-8.1-13.14 0-1.73 2.53-4.55 5.83-6.49 4.83-2.85 6.55-3.12 9.97-1.56 4.97 2.27 7.93 0.09 3.52-2.58-1.71-1.04-4.6-3.05-6.43-4.47-3.29-2.56-3.28-2.61 0.8-5.29 3.91-2.56 4.44-2.49 10.08 1.34 3.27 2.23 7.29 4.03 8.94 4.02 2.1-0.02 1.32-1.1-2.6-3.61-5.22-3.34-5.4-3.74-2.59-5.79 4.01-2.93 5.45-2.7 12.58 1.97zm45.13 0.4c1.63 2.76 2.92 15.07 1.65 15.78-0.75 0.42-4.54-0.65-8.42-2.38-4.87-2.17-7.06-4.17-7.06-6.44 0-2.68 0.77-3.1 4.15-2.25 3.45 0.87 4.16 0.45 4.16-2.46 0-3.32 3.94-4.93 5.52-2.25zm-27.59 3.73c1 3.84 1.26 3.91 5.57 1.61 2.74-1.47 3.21-1.17 3.2 2.07-0.01 2.7-1.98 4.92-6.79 7.67-3.72 2.12-7.01 3.62-7.31 3.32-1.2-1.24-1.39-14.08-0.23-15.96 1.89-3.06 4.58-2.44 5.56 1.29zm20.41 14.62c3.63 1.77 6.01 4.24 6.34 6.56 0.59 4.15-0.73 4.52-7.21 2.06-3.2-1.22-4.23-1.16-3.77 0.22 0.35 1.04 3.96 3.12 8.03 4.61 6.46 2.38 7.46 3.41 7.92 8.16l0.53 5.42-6.13-2.56c-3.36-1.4-6.78-2.55-7.58-2.55-2.99 0-1.31 2.85 2.79 4.72 3.77 1.72 4.18 2.76 3.73 9.51-0.41 6.18-1.33 8.08-5 10.3-4.15 2.51-4.93 2.51-10.14 0.02-4.55-2.17-5.84-3.91-6.67-9.03-0.9-5.53-0.46-6.79 3.5-9.95 6.25-4.99 3.5-6.77-3.8-2.46-3.29 1.94-6.31 3.53-6.72 3.53-0.4 0-0.73-2.21-0.73-4.91 0-4.1 1.29-5.67 7.75-9.46 7.27-4.26 7.94-7.85 0.75-4.01-4.68 2.51-5.18 2.28-5.18-2.35 0-3.12 1.58-4.92 6.57-7.47 7.8-3.97 7.61-3.97 15.02-0.36z"/>
  <path d="m161.55 621.34c4.61 5.55-3.61 13.77-9.16 9.16-1.38-1.14-2.27-4-2-6.36 0.37-3.22 1.57-4.42 4.79-4.8 2.36-0.27 5.23 0.63 6.37 2zm2.45 18.57c1.43 3.73 1.47 3.66-3.56 6.3-4.04 2.11-5.1 2.08-9.14-0.31-5.05-2.98-5.21-3.37-2.93-6.96 1.26-1.98 2.23-2.09 4.69-0.57 1.92 1.19 4 1.36 5.45 0.44 3.32-2.1 4.34-1.89 5.49 1.1zm-14.18 9.33c5.28 3.35 5.69 3.37 11.42 0.64 4.8-2.29 6.2-2.41 7.32-0.66 2.33 3.67 1.68 4.59-5.89 8.26l-7.31 3.55-7.73-4.53c-6.75-3.96-7.46-4.88-5.61-7.31 1.16-1.53 2.16-2.92 2.22-3.1 0.05-0.18 2.56 1.24 5.58 3.15zm-2.64 11.33l7.9 4.97 8.35-4.23c4.59-2.32 9.06-3.78 9.94-3.24 3.66 2.27 1.02 5.62-8.39 10.63l-9.98 5.33-10.05-6.11c-6.91-4.19-9.76-6.87-9.11-8.55 0.51-1.34 0.94-2.75 0.94-3.13 0-1.58 2.91-0.36 10.4 4.33zm-58.1-3.14c3.843 2.15 3.653 9.2-0.304 11.32-4.063 2.17-11.196-3.02-9.658-7.03 1.532-3.99 6.6-6.17 9.962-4.29zm139.65 5.62c3.33 3.34 3.43 6.42 0.28 9.03-5.31 4.41-13.48-2.07-9.85-7.82 2.49-3.96 6.33-4.44 9.57-1.21zm-101.06 2.5c0.64 1.03 0.65 6.66 0.03 12.49l-1.14 10.62-9.07 5.18c-4.98 2.85-10.15 4.77-11.49 4.25-4.67-1.79-2.37-5.48 5.8-9.3l8.23-3.86 0.48-10.11c0.38-7.85 1.11-10.23 3.24-10.63 1.51-0.29 3.28 0.32 3.92 1.36zm-10.82 7.4v9.11l-8.15 4.12c-7.01 3.56-8.28 3.77-9.128 1.56-1.599-4.17-1.178-5.34 2.328-6.46 5.48-1.74 8.31-5.73 8.31-11.74 0-4.59 0.64-5.69 3.32-5.69 2.92 0 3.32 1.1 3.32 9.1zm-11.04-7.85c2 3.24-1.31 10.66-5.8 12.98-4.361 2.26-4.905 2.23-5.876-0.3-0.647-1.69 0.023-3.59 1.69-4.81 1.518-1.11 2.76-3.62 2.76-5.57 0-2.41 1.037-3.55 3.226-3.55 1.77 0 3.57 0.56 4 1.25zm105.69 6.02c0 2.3 1.15 4.83 2.55 5.62 1.56 0.86 2.14 2.53 1.49 4.23-1.37 3.57-3.87 3.5-8.75-0.25-5.18-3.99-4.56-12.47 0.97-13.25 3.03-0.43 3.74 0.26 3.74 3.65zm-11.63 2.75c0 5.89 0.7 7.11 5.79 10.11 4.96 2.93 5.54 3.88 4.04 6.69-1.72 3.21-1.88 3.19-8.69-0.82-6.7-3.95-6.97-4.43-7.45-13.39-0.45-8.42-0.18-9.29 2.91-9.29 2.87 0 3.4 1.05 3.4 6.7zm-10.5 2.95l-1 9.66 8.21 4.87c4.51 2.68 8.22 5.83 8.24 7 0.07 4.28-4.63 3.72-13.78-1.63l-9.37-5.48-0.03-12.03c-0.03-11.92 0.01-12.04 4.36-12.04s4.38 0.07 3.37 9.65zm-47.28-3.43c6.56 5.23 7.83 7.16 7.91 12.04 0.06 3.2 0.56 7.5 1.11 9.55 1.36 5.08-0.86 4.7-8.97-1.54-6.07-4.66-6.99-6.28-7.95-14-0.6-4.79-0.82-9.52-0.5-10.5 0.33-0.98 4.11 1.02 8.4 4.45zm33.85 3.01c-0.64 4.51-1.49 9.32-1.89 10.69-0.75 2.6-15.31 12.56-16.55 11.32-0.38-0.39-0.08-4.63 0.68-9.43 1.4-8.87 2.11-9.76 14.01-17.56l4.91-3.22-1.16 8.2zm-35.84 24.74l7.47 3.93-8.03 3.47c-4.41 1.9-9.06 3.46-10.33 3.46-2.86 0-17.34-6.93-17.34-8.3 0-1.29 14.99-6.69 18.26-6.58 1.37 0.05 5.86 1.86 9.97 4.02zm48.98 1.51l8.3 3.88-6.54 2.79c-10.94 4.65-13.15 4.68-22.48 0.36l-8.98-4.16 7.93-3.4c9.97-4.28 11.59-4.24 21.77 0.53zm-72.44 11.27c9.89 6.28 10.47 6.99 9.52 11.72-0.55 2.77-1.01 7.94-1.01 11.47 0 5.33-0.57 6.44-3.32 6.44-2.94 0-3.32-1.11-3.32-9.79v-9.79l-8.34-5.35c-7.18-4.61-8.06-5.73-6.28-8.06 1.13-1.49 2.1-2.85 2.15-3.02 0.04-0.17 4.82 2.7 10.6 6.38zm86.5-0.36c1.56 2.91 0.97 3.73-4.72 6.64-10.05 5.12-11.83 7.66-11.83 16.83 0 7.13-0.44 8.18-3.39 8.18-3.15 0-3.36-0.86-2.91-11.69l0.49-11.69 10.29-5.79c10-5.63 10.35-5.7 12.07-2.48zm-53.1 0.5c-0.06 11.92-2.03 16.21-10.24 22.24-4.49 3.29-8.41 5.71-8.72 5.37s0.17-5.11 1.07-10.6c1.55-9.48 2.05-10.26 9.77-15.37 7.96-5.27 8.14-5.3 8.12-1.64zm16.29 4.17c5.9 5.46 6.82 7.3 7.44 14.94 0.84 10.36-0.42 10.76-9.44 3.04-5.83-4.98-6.57-6.51-7.27-14.88-0.46-5.6-0.11-9.33 0.88-9.33 0.91 0 4.68 2.8 8.39 6.23zm-58.2 3.14c6.91 4.16 7.06 4.44 7.06 13.22 0 8.45-0.24 8.96-4.15 8.96-3.81 0-4.15-0.61-4.15-7.47 0-4.11-0.56-7.49-1.25-7.51-3.44-0.1-8.798-6.12-7.789-8.75 1.39-3.62 1.815-3.56 10.279 1.55zm100.01 2.18c1.59 2.98 1.1 3.73-4.06 6.19-5.21 2.49-5.87 3.51-5.87 9.19 0 4.26-0.86 6.72-2.6 7.38-4.6 1.77-6.22-1.88-4.65-10.49 1.3-7.07 2.26-8.43 8.41-11.83 6.95-3.83 6.95-3.83 8.77-0.44zm-108.26 5.98c5.045 3.53 5.315 14.02 0.365 14.02-2.336 0-3.316-1.11-3.316-3.75 0-2.07-1.551-4.72-3.447-5.91-2.77-1.73-3.056-2.62-1.457-4.55 2.504-3.02 3.308-3 7.855 0.19zm114.04 3.64c0.75 1.95-0.02 3.66-2.32 5.19-1.88 1.25-3.42 3.68-3.42 5.39 0 2.01-1.18 3.12-3.33 3.12-2.68 0-3.32-1.11-3.32-5.77 0-4.71 0.9-6.23 4.9-8.3 6.11-3.16 6.13-3.16 7.49 0.37zm-50.28 10.05c7.96 5.18 9.18 6.6 7.78 9.1-1.55 2.76-2.3 2.6-10.67-2.18l-9-5.16-8.43 4.6c-7.08 3.85-8.68 4.2-9.96 2.18-0.83-1.32-1.52-2.77-1.52-3.23-0.01-1.09 19.23-11.65 21.01-11.53 0.75 0.05 5.6 2.85 10.79 6.22zm-75.154-3.99c4.608 5.56-3.608 13.77-9.161 9.16-1.372-1.13-2.27-4-1.996-6.36 0.375-3.22 1.574-4.42 4.793-4.79 2.361-0.28 5.225 0.62 6.364 1.99zm136.96 3.17c4.24 3.09 2.93 10.12-2.01 10.82-7.34 1.05-11.05-5.35-6.01-10.38 3.17-3.17 4.21-3.23 8.02-0.44zm-65.03 11.6c6.8 4.01 6.91 4.19 4.62 7.81-1.37 2.17-2.32 2.09-7.49-0.7-5.59-3.01-6.24-3.04-11.65-0.46-5.41 2.59-5.82 2.57-7.35-0.28-1.34-2.51-0.53-3.62 4.76-6.6 7.83-4.4 9.3-4.38 17.11 0.23zm-4.09 10.4c3.93 2.75 4.82 6.49 1.96 8.25-0.95 0.59-2.77 0.21-4.05-0.84-1.68-1.4-3.22-1.44-5.67-0.13-2.74 1.47-3.67 1.2-5.11-1.48-1.5-2.8-1.03-3.67 3.17-5.84 5.98-3.09 5.23-3.09 9.7 0.04zm-0.58 16.63c3.17 3.17 3.23 4.21 0.44 8.02-3.09 4.24-10.12 2.93-10.82-2-1.05-7.35 5.35-11.05 10.38-6.02z"/>
  <path d="m529.54 749.78c2.5 4.28 1.1 9.68-3.05 11.85-3.47 1.81-3.41 1.88 1 1.26 3.95-0.55 4.58-0.12 4.15 2.87-0.37 2.58-2.07 3.8-6.31 4.55-3.57 0.63-4.37 1.11-2.08 1.25 4.59 0.27 4.85 2.83 0.53 5.14-6.84 3.66-15.06-0.24-15.06-7.13 0-3.3 1.77-3.55 5.04-0.7 1.31 1.14 0.64 0.09-1.48-2.35-2.74-3.13-3.54-5.48-2.73-8.03l1.15-3.6 4.14 3.88 4.14 3.87-1.98-4.35c-1.49-3.28-1.51-5.23-0.09-7.89 2.35-4.38 10.21-4.77 12.63-0.62zm-41.89 8.36c1.63 1.8 2.34 4.57 1.82 7.06-0.84 3.96-0.78 3.95 1.77-0.48 1.46-2.51 3.29-4.57 4.07-4.57 2.44 0 3.52 5.07 1.78 8.32-2.45 4.58-2 6.08 0.72 2.38 2.26-3.07 2.43-3.08 3.54-0.21 2.8 7.23-8.08 17.16-13.7 12.5-2.04-1.7-1.83-2.31 1.45-4.13 4.67-2.59 3.2-2.87-2.89-0.55-3.17 1.2-5.12 1.14-6.75-0.21-3.24-2.69-2.83-4.81 0.94-4.81 1.77 0 3.76-0.88 4.42-1.94 0.83-1.34 0.26-1.59-1.8-0.79-3.61 1.38-9.17-3.09-9.17-7.37 0-1.62 1.18-4.12 2.61-5.56 3.45-3.44 7.87-3.3 11.19 0.36zm22.37 19.06c2.27 2.42 3.04 4.56 2.15 5.99-1.05 1.71-1.66 1.76-2.62 0.21-0.95-1.54-1.57-1.49-2.63 0.22-2.5 4.06-5.21-0.69-3.28-5.76 2.03-5.35 1.98-5.35 6.38-0.66zm33.19 3.08c-0.73 4.98-0.66 5.05 1.89 1.88 6.2-7.72 16.46-3.95 14.16 5.21-1.21 4.85-8.05 7.64-11.14 4.54-3.14-3.14-5.23-2.08-2.29 1.17 3.44 3.81 3.43 4.64-0.05 5.98-1.79 0.69-4.02-0.3-6.23-2.76-1.88-2.11-2.87-3.11-2.18-2.22 2.11 2.74 1.38 4.27-2.04 4.27-4.66 0-8.76-6.9-7.37-12.42 1.3-5.19 5.35-7.36 7.47-4.02 1.12 1.77 1.48 1.47 1.49-1.24 0.03-3.01 2.85-5.57 6.17-5.57 0.48 0 0.54 2.33 0.12 5.18zm-16.83 2.3c-0.58 1.52-1.05 3.81-1.05 5.11 0 1.29-1.12 2.35-2.49 2.35s-2.49-1.12-2.49-2.49-0.6-2.49-1.33-2.49c-1.66 0-1.6 7.6 0.08 9.27 2.05 2.05 1.41 4.02-1.3 4.02-1.4 0-3.14 1.62-3.88 3.6-0.88 2.39-1.74 2.95-2.53 1.66-0.66-1.07-3-1.94-5.2-1.94-2.82 0-3.73-0.72-3.08-2.42 0.51-1.33-0.35-4.13-1.92-6.22-1.63-2.2-2.45-2.64-1.91-1.05 1.44 4.29-3.43 5.03-6.29 0.94-3.45-4.92-3.24-5.66 1.97-6.97 3.33-0.84 5.08-0.34 6.74 1.9 2.16 2.91 2.33 2.9 4.64-0.21 1.86-2.51 2.84-2.79 4.38-1.24 2.94 2.93 4.35 2.43 4.94-1.75 0.42-2.9 1.79-3.86 6.16-4.28 4.66-0.44 5.44-0.06 4.56 2.21zm-35.18 11.72c1.92 2.92 2.45 5.84 1.69 9.3-0.93 4.21-1.75 4.91-5.09 4.27-3.05-0.58-3.98-0.04-3.98 2.33 0 2.04-1.2 3.09-3.53 3.09-3.05 0-3.39-0.69-2.52-5.06 0.63-3.15 0.39-4.68-0.62-4.06-0.9 0.56-1.64 2.01-1.64 3.23 0 3.96-8.46 4.8-12.06 1.2-6.86-6.86 3.6-17.06 10.98-10.72 3.44 2.95 3.44 2.95 0.6-1.55-3.59-5.7-3.56-6.29 0.36-6.29 1.76 0 4.75 1.97 6.64 4.38 1.9 2.4 3.45 3.57 3.45 2.59 0-0.99-0.76-2.26-1.69-2.83-0.93-0.58-1.26-1.74-0.73-2.59 1.73-2.81 5.31-1.61 8.14 2.71zm37.91 3.22c2.9 3.99 2.88 4.08-1.24 5.11-5.41 1.36-10.97-0.49-7.65-2.55 1.25-0.77 1.81-2.6 1.25-4.06-1.64-4.28 4.27-3.12 7.64 1.5zm-28.04 3.2c-0.66 1.7-0.08 2.61 1.66 2.61 4.86 0 2.77 4.54-2.58 5.61-2.88 0.58-5.47 0.82-5.75 0.54-1.5-1.49 2.51-10.38 4.89-10.84 1.94-0.37 2.48 0.25 1.78 2.08zm16.86 4.71c0.49 1.27 0.09 4.41-0.89 6.98l-1.78 4.68-4.13-3.88c-4.33-4.06-4.59-7.36-0.6-7.44 1.29-0.02 3.28-0.63 4.43-1.35 1.25-0.78 2.45-0.37 2.97 1.01zm16.54 1.23c0.57 0.92-0.7 2.36-2.81 3.19-3.12 1.22-2.47 1.45 3.45 1.23 8.51-0.33 10.85 2.73 4 5.23l-4.65 1.7 4.51 0.13c5.87 0.17 9.02 5.58 6.49 11.13-3.63 7.98-16 2.67-14.17-6.08 0.6-2.84 0.06-2.34-1.77 1.61-2.39 5.18-2.87 5.47-5.23 3.1-2.1-2.09-2.23-3.3-0.68-6.21 1.06-1.98 1.57-4.5 1.13-5.59-0.45-1.09-0.87-0.61-0.94 1.06-0.07 1.69-1.06 2.72-2.21 2.31-2.96-1.05-1.88-9.91 1.52-12.4 3.42-2.5 9.92-2.74 11.36-0.41zm-25.62 7.6c3.86 4.11 3.33 10.6-0.64 7.93-1.17-0.78-0.79-0.19 0.85 1.33 3.05 2.82 3.87 6.6 1.86 8.6-0.62 0.62-2.86-0.51-4.98-2.5-3.72-3.49-5.69-2.22-2.11 1.36 2.99 2.99 0.05 10.14-4.65 11.32-6.34 1.59-11.12-3.61-8.84-9.62 0.93-2.44 2.79-4.45 4.13-4.45s2.89-0.73 3.44-1.63c0.63-1.02-0.91-1.25-4.05-0.62-4.37 0.87-5.06 0.53-5.06-2.52 0-2.31 1.04-3.53 3.03-3.53 2.06 0 3-1.17 2.91-3.64-0.1-2.8 1.1-3.9 5.19-4.75 4.28-0.9 6.02-0.38 8.92 2.72z"/>
  <path d="m209.84 835.04c0 1.74 0.74 3.16 1.66 3.16 3.06 0 1.7 3.62-1.7 4.51-2.53 0.66-2.92 1.4-1.57 3.03 1.36 1.63 0.7 2.68-2.75 4.36-2.49 1.22-4.84 3.14-5.21 4.29-0.94 2.9 3.75 2.59 6.25-0.42 2.93-3.53 7.29-3.26 5.89 0.38-0.82 2.15-0.08 1.91 2.97-0.96 2.78-2.61 4.44-3.22 5.24-1.92 0.65 1.04 0.74 2.33 0.2 2.86-0.53 0.54 0.33 1.98 1.91 3.21 2.72 2.12 2.7 2.38-0.34 4.73-1.78 1.37-2.56 2.49-1.75 2.49 0.82 0 0.6 0.88-0.47 1.96-1.5 1.49-2.8 1.2-5.6-1.25-2-1.76-3.13-2.31-2.5-1.24 1.88 3.23-2.21 4.39-5.37 1.53-3.38-3.06-6.83-3.49-6.83-0.85 0 0.99 2.24 2.65 4.98 3.68 3.67 1.39 4.73 2.66 4.04 4.84-0.63 1.98-0.08 2.96 1.66 2.96 1.44 0 2.61 1.12 2.61 2.49s-0.79 2.49-1.76 2.49-1.35 0.66-0.85 1.47-0.2 2.4-1.56 3.53c-1.97 1.63-2.99 1.62-4.97-0.02-1.85-1.54-2.49-1.57-2.49-0.1 0 1.07-0.81 1.45-1.81 0.83-1-0.61-1.5-2.8-1.11-4.85 0.54-2.79 0.05-3.55-1.94-3.03-1.97 0.51-2.65-0.51-2.63-3.97 0.01-2.56-0.73-4.65-1.64-4.65s-1.47 2.05-1.24 4.56c0.3 3.22-0.34 4.57-2.18 4.57-1.72 0-2.42 1.21-2.08 3.58 0.29 1.97-0.41 3.9-1.56 4.29-1.14 0.39-2.07-0.19-2.07-1.29 0-1.57-0.53-1.56-2.42 0-3.14 2.61-6.4 0.55-5.37-3.39 0.44-1.69 0.04-2.92-0.89-2.72-0.94 0.2-2.04-0.58-2.46-1.72s0.42-2.07 1.87-2.07c1.44 0 2.63-1.31 2.64-2.91 0-1.6 2.43-4.34 5.39-6.1 4.4-2.61 4.84-3.32 2.36-3.88-1.67-0.38-4.42 0.57-6.12 2.11-3.28 2.97-7.46 1.93-5.54-1.38 0.63-1.07-0.35-0.65-2.18 0.95-3.8 3.33-5.55 3.68-5.55 1.13 0-0.98-1.12-2.91-2.5-4.29-2.77-2.77-1.91-5.56 1.72-5.56 1.29 0 1.96-1 1.49-2.22-1.09-2.83 8.45-2.67 13.71 0.23 4.92 2.7 7.26 2.51 6.1-0.51-0.52-1.38-2.8-2.97-5.06-3.54-2.91-0.73-3.88-1.89-3.33-3.99 0.5-1.92-0.33-3.25-2.36-3.78-3.22-0.85-4.41-4.45-1.46-4.45 0.91 0 1.66-1.15 1.66-2.55 0-3.47 4.97-5.13 6.78-2.26 1.05 1.65 1.48 1.72 1.49 0.24 0.02-1.14 0.78-2.08 1.69-2.08s1.66 1.85 1.66 4.1c0 3.14 0.65 3.85 2.75 3.05 2.3-0.89 2.6-0.25 1.77 3.86-1.18 5.93 1.28 11.4 3.05 6.77 0.61-1.58 0.71-4.41 0.22-6.28-0.54-2.07 0.03-3.75 1.47-4.3 1.3-0.5 2.36-2.18 2.36-3.72 0-2.08 1.52-2.86 5.81-2.98 4.67-0.13 5.82 0.46 5.82 2.99z"/>
  <path d="m356.88 719.42c3.09 5.74 3.09 5.75-0.89 9.98l-3.98 4.24-3.11-4.92c-3.25-5.13-2.51-8.9 2.56-13.11 1.87-1.55 2.93-0.81 5.42 3.81zm-33.25 7.01c6.56 7.6 8.05 10.43 7.62 14.53-0.77 7.36-1.38 7.75-7.67 4.74-5.03-2.39-5.9-3.79-7.48-11.98-0.98-5.1-2.14-10.95-2.58-13-1.26-5.92 1.34-4.45 10.11 5.71zm68.86-3.23c0 0.79-1.73 6.57-3.85 12.84-3.5 10.39-4.39 11.59-9.96 13.52l-6.12 2.12v-6.97c0-6.26 0.81-7.66 7.89-13.71 9.34-7.99 12.04-9.74 12.04-7.8zm-46.24 9.77l6.06 4.17 7.03-3.59c5.69-2.9 7.3-3.16 8.44-1.36 0.78 1.23 1.42 2.8 1.44 3.5 0.02 1.15-8.79 7.18-12.17 8.32-0.77 0.26-1.64 5.06-1.95 10.67-0.3 5.61-1.45 11.89-2.56 13.95-1.96 3.67-2.05 3.68-4.42 0.54-1.82-2.4-2.18-5.95-1.45-14.2l0.97-10.99-6.63-4.39c-7.13-4.71-7.74-5.9-4.65-8.99 2.58-2.58 2.74-2.54 9.89 2.37zm-6.36 10.01c0.6 0.6 0.63 4.98 0.08 9.74-0.67 5.63-0.37 9.05 0.84 9.8 2.31 1.43 2.49 10.92 0.2 10.92-2.57 0-8.3-6.35-8.3-9.19 0-1.45-3.27-3.96-7.54-5.79-6.85-2.93-7.38-3.55-5.69-6.71 1.26-2.36 2.76-3.11 4.64-2.33 5.73 2.35 7.76 1.63 8.29-2.96 0.5-4.36 4.66-6.3 7.48-3.48zm29.97 3.11c0.57 1.49 1.04 4.13 1.04 5.86 0 2.69 0.62 2.91 4.29 1.51 5.03-1.91 7.34-0.91 7.34 3.21 0 2.02-2.14 3.6-6.72 4.97-4.21 1.26-7.38 3.46-8.49 5.89-0.97 2.14-3.55 4.69-5.73 5.69-3.61 1.64-3.97 1.43-3.97-2.37 0-2.29 1.19-5.98 2.64-8.2 1.68-2.57 2.43-6.6 2.07-11.15-0.49-6.21-0.11-7.18 2.96-7.62 2.08-0.3 3.96 0.61 4.57 2.21zm-54.41 5.63l-1.08 8.18 9.06 5.52c7.62 4.65 12.6 10.2 12.6 14.04 0 1.21-10.59-1.18-11.62-2.62-0.46-0.64-3.72-3.1-7.24-5.47l-6.41-4.3-7.57 3.25c-6 2.57-7.85 2.8-8.92 1.1-2.53-3.98-1.42-5.77 5.15-8.36 6.17-2.42 6.63-3.09 7.69-11.04 1.01-7.63 1.54-8.47 5.27-8.47 4.02 0 4.12 0.27 3.07 8.17zm-14.51-2.19c3.21 7.04 2.41 8.96-3.73 8.96-4.68 0-5.95-0.83-7.69-5.03-2.42-5.83-2.44-5.8 4.36-7.09 4.38-0.84 5.46-0.35 7.06 3.16zm93.9 7.15c-1.07 8.13-1.06 8.17 5.76 12.68 7.47 4.94 8.01 6.02 4.47 8.96-1.88 1.55-3.77 1.07-9.1-2.29l-6.73-4.25-7.51 3.65c-4.13 2.01-7.51 4.25-7.51 4.98s-2.61 1.33-5.81 1.33c-3.19 0-5.79-0.56-5.77-1.25 0.09-3.07 6.49-8.37 14.49-11.98 7.23-3.27 8.72-4.67 8.74-8.22 0.04-8.31 1.82-11.76 6.04-11.76 3.85 0 3.97 0.34 2.93 8.15zm13.84-3.48c5.93 0.57 6.32 1.45 3.47 7.71-1.35 2.96-3.22 4.22-6.23 4.2-7.18-0.04-8.48-1.84-5.39-7.45 2.31-4.18 3.61-4.9 8.15-4.46zm-95.96 23.71c3.17 2.66 7.69 4.83 10.06 4.83 2.38 0 5.77 1.11 7.54 2.46 2.79 2.13 2.89 2.68 0.73 4.13-1.37 0.91-5.1 1.68-8.3 1.7s-8.05 1.52-10.79 3.33c-6.12 4.05-8.46 4.17-9.87 0.49-0.72-1.88 0.19-3.8 2.71-5.7l3.79-2.87-3.74-3.98c-3.56-3.79-3.6-4.11-0.81-6.6 2.7-2.41 3.39-2.24 8.68 2.21zm42.82 2.63c2.63 1.83 3.74 4.28 3.74 8.24 0 4.55-1.02 6.25-5.27 8.84-5.35 3.25-6.87 3.02-13.65-2.04-4.53-3.38-2.51-13.28 3.25-15.91 5.41-2.46 7.37-2.32 11.93 0.87zm-54.3 1.46c3.38 3.59 3.61 4.48 1.54 5.86-7.49 4.99-8.4 5.07-18.73 1.6-13.94-4.68-16.25-6.23-11.03-7.42 23.18-5.31 23.28-5.31 28.22-0.04zm94.07 0.17c0.68 1.76-0.32 3.86-2.79 5.86l-3.84 3.11 3.56 3.79c3.17 3.37 3.3 4.15 1.19 7.01-2.3 3.12-2.54 3.05-7.96-2.18-3.79-3.66-7.21-5.4-10.59-5.4-2.75 0-6.4-1.02-8.11-2.27-3.01-2.2-3-2.33 0.4-4.15 1.93-1.03 5.99-1.9 9.02-1.92s7.37-1.49 9.66-3.28c5.1-4 8.08-4.17 9.46-0.57zm21.09 6.48c6.31 2.2 11.77 4.31 12.13 4.67 1.31 1.31-24.46 6.23-27.52 5.27-1.7-0.55-4.36-2.38-5.91-4.09-2.65-2.94-2.55-3.28 2.12-6.6 5.88-4.19 4.93-4.23 19.18 0.75zm-82.03 6.65c0 3.65-4.76 7.83-13.29 11.66l-9.95 4.46v8.08c0 7.5-0.3 8.07-4.16 8.07-3.89 0-4.15-0.53-4.16-8.71-0.01-8.43-0.23-8.85-6.67-12.52-5.75-3.29-6.41-4.24-4.91-7.06 2.19-4.08 2.11-4.09 10.48 0.82l6.95 4.07 8.97-4.9c8.04-4.4 16.74-6.46 16.74-3.97zm34.05 2.14c1.83 0.59 6.86 3.53 11.17 6.52l7.84 5.45 6.61-3.37c8.1-4.13 7.89-4.13 10.07-0.06 1.57 2.94 0.91 3.74-5.75 6.97-7.38 3.59-7.53 3.82-7.53 11.63 0 7.4-0.3 7.97-4.15 7.97-3.87 0-4.15-0.55-4.15-8.22 0-7.96-0.26-8.39-7.89-13.51-8.71-5.85-12.04-9.34-12.04-12.62 0-2.34 0.68-2.43 5.82-0.76zm-27.41 6.94c0 1.86-1.3 5.39-2.9 7.84-1.69 2.58-2.91 7.61-2.91 11.98 0 6.54-0.49 7.59-3.73 8.06-3.27 0.46-3.74-0.21-3.74-5.32 0-5.81-0.02-5.83-5.16-4.04-4.07 1.42-5.47 1.32-6.62-0.5-2.62-4.14-1.59-6.17 3.73-7.33 2.87-0.64 8.07-4.06 11.55-7.61 7.08-7.22 9.78-8.07 9.78-3.08zm17.89-0.6c1.16 0.46 3.23 3.01 4.6 5.66s5.46 6.33 9.1 8.19c6.98 3.56 7.46 4.35 5.04 8.19-1.24 1.95-2.32 2.03-5.87 0.41-5.7-2.6-5.42-2.72-6.68 3-0.74 3.36-2.1 4.99-4.18 4.99-4.34 0-4.96-1.73-3.3-9.11 1.06-4.7 0.81-7.66-0.93-11.03-2.54-4.91-3.2-11.5-1.14-11.28 0.69 0.07 2.2 0.51 3.36 0.98zm-8.54 4.28c0.7 2.06 1.04 8.16 0.77 13.56-0.47 9.51-0.3 9.98 5.6 14.94 4.38 3.69 5.78 5.94 4.97 8.03-1.51 3.93-3.3 3.67-10.03-1.46l-5.73-4.37-7.49 3.96c-6.49 3.42-7.71 3.61-9.08 1.46-2.46-3.87-2.13-4.38 5.83-9.05l7.47-4.38 0.06-10.3c0.06-13.16 4.78-20.8 7.63-12.39zm-52.78 4.37c1.85 1.18 1.8 2.25-0.29 6.3-2.22 4.29-3.25 4.8-8.46 4.19-6.83-0.8-6.73-0.6-3.4-7.05 2.57-4.98 7.52-6.37 12.15-3.44zm110.62 10.58c1.25 2.96 2.15 5.47 2 5.57s-2.7 0.64-5.65 1.2c-4.74 0.9-5.68 0.45-7.89-3.83-3.67-7.1-3.16-8.34 3.38-8.34 5.08 0 6.21 0.75 8.16 5.4zm-82.77 7.51c1.1 5.84 0.76 6.4-9.46 15.56-5.82 5.23-10.87 9.23-11.21 8.89-0.84-0.84 6.42-22.75 8.34-25.19 0.85-1.07 3.71-2.71 6.37-3.63 4.66-1.63 4.87-1.48 5.96 4.37zm49.66 0.12c4.4 2.69 5.26 4.52 7.05 14.97 1.13 6.55 2.05 12.73 2.05 13.72 0 1.79-14.47-13.37-17.18-18.01-1.54-2.62 0-13.75 1.89-13.74 0.65 0 3.43 1.38 6.19 3.06zm-26.79 15.97c3.53 5.4 3.38 7.4-0.92 11.98l-3.6 3.82-3.08-5.07c-3.03-4.98-3.03-5.15 0.39-9.95 1.91-2.68 3.71-4.87 4-4.87s1.73 1.84 3.21 4.09z"/>
  <path d="m326.51 900.63c0.54 0.54 0.54 2.16-0.01 3.59-0.66 1.72-0.33 2.19 0.95 1.4 1.15-0.71 1.94-0.19 1.94 1.28 0 1.36-1.59 2.98-3.54 3.6-2.79 0.88-3.05 1.43-1.24 2.6 1.92 1.24 1.89 1.74-0.2 3.11-1.37 0.9-3.35 1.65-4.39 1.66-1.04 0.02-2.33 1.15-2.85 2.52-1.29 3.34 4.48 3.33 7.26-0.02 1.58-1.91 2.62-2.06 4.35-0.63 1.7 1.42 2.89 1.37 4.76-0.18 1.37-1.14 2.49-1.6 2.49-1.03 0 2.84 0.43 3.63 2.61 4.85 3.07 1.72 2.99 3.65-0.34 8.74-2.5 3.82-2.95 3.94-5.61 1.54-2.63-2.39-2.98-2.37-3.96 0.17-0.99 2.58-1.29 2.59-4.07 0.07-1.65-1.49-4.34-2.72-5.98-2.72-2.46 0-2.62 0.44-0.91 2.49 1.13 1.37 3.05 2.49 4.25 2.49 3.18 0 4.83 3.47 2.38 4.99-1.5 0.93-1.08 1.61 1.45 2.42 3.46 1.1 4.99 4.22 2.06 4.22-0.81 0-1.37 1.3-1.24 2.9 0.18 2.25-1.22 2.98-6.19 3.26-6.37 0.36-6.42 0.31-5.51-4.98 0.5-2.93 0.53-4.4 0.06-3.26-1.68 4.06-3.9 1.99-3.9-3.64 0-3.14-0.75-6.17-1.66-6.74-1.81-1.11-2.19 0.73-1.69 8.13 0.26 3.9-0.21 4.59-2.5 3.71-2.33-0.89-2.65-0.36-1.8 3.02 0.97 3.86 0.66 4.08-5.21 3.76-4.29-0.24-6.24-1.13-6.24-2.84 0-1.37-1.11-3.19-2.47-4.04-1.98-1.24-1.5-1.96 2.49-3.66 2.73-1.16 4.03-2.15 2.89-2.19-3.6-0.13-2.26-3.41 2.07-5.06 2.28-0.86 4.15-2.34 4.15-3.28 0-2.55-4.29-2.04-6.64 0.79-2.72 3.29-4.98 3.17-4.98-0.25 0-2.54-0.24-2.54-3.1 0.05-2.93 2.65-3.24 2.57-5.98-1.61-2.77-4.22-2.3-7.5 1.96-13.81 0.25-0.38 1.96 0.67 3.79 2.33 2.99 2.71 3.33 2.74 3.33 0.27 0-3.42 2.26-3.54 4.98-0.26 1.14 1.37 3.66 2.47 5.6 2.44 3.53-0.06 3.53-0.07-0.22-3.19-2.07-1.73-4.69-3.51-5.82-3.97-1.54-0.63-1.45-1.25 0.35-2.51 1.93-1.34 1.51-1.9-2.14-2.82-4.1-1.02-5.52-5.39-1.49-4.54 0.92 0.19 1.57-0.93 1.45-2.49-0.17-2.16 1.28-2.92 6.02-3.19 5.87-0.33 6.18-0.1 5.21 3.75-0.84 3.38-0.53 3.91 1.79 3.02 2.35-0.9 2.72-0.17 2.26 4.39-0.34 3.31 0.26 5.74 1.52 6.18 1.41 0.49 2.08-1.2 2.08-5.23 0-5.86 2.13-7.94 3.99-3.88 0.52 1.14 0.52-0.35 0.01-3.32-0.92-5.22-0.76-5.4 4.72-5.4 3.12 0 6.11 0.45 6.66 1z"/>
</svg>
